<svg id="svg" version="1.1" xmlns="http://www.w3.org/2000/svg" xmlns:xlink="http://www.w3.org/1999/xlink" width="400" height="400" viewBox="0, 0, 400,400"><g id="svgg"><path id="path0" d="M100.800 85.866 C 99.839 86.072,99.219 86.640,99.206 87.324 C 99.203 87.502,99.425 87.518,99.700 87.359 C 99.975 87.201,100.060 87.226,99.888 87.414 C 99.523 87.816,98.804 87.953,96.540 88.053 C 95.062 88.119,94.841 88.259,94.534 89.332 C 94.344 89.995,93.921 90.610,93.594 90.699 C 93.076 90.840,93.076 90.803,93.600 90.409 C 94.106 90.028,94.074 89.977,93.400 90.084 C 92.849 90.172,92.600 90.520,92.600 91.205 C 92.600 91.989,92.370 92.226,91.519 92.325 C 90.420 92.452,89.706 93.600,90.214 94.423 C 90.361 94.661,90.117 94.949,89.668 95.066 C 88.769 95.302,88.253 96.239,88.661 96.898 C 88.816 97.149,88.734 97.206,88.462 97.038 C 87.846 96.657,87.872 97.302,88.500 97.979 C 88.775 98.275,88.803 98.407,88.562 98.273 C 87.967 97.942,87.958 101.215,88.551 101.977 C 88.894 102.418,88.882 102.483,88.500 102.253 C 88.182 102.062,88.000 102.190,88.000 102.605 C 88.000 102.964,87.505 104.100,86.900 105.129 L 85.800 107.000 85.800 134.600 L 85.800 162.200 86.888 163.801 C 87.857 165.228,87.991 165.838,88.117 169.378 C 88.208 171.961,88.423 173.408,88.729 173.510 C 88.988 173.596,89.200 173.826,89.200 174.021 C 89.200 174.216,88.903 174.261,88.540 174.122 C 87.703 173.800,88.090 177.650,89.041 179.113 C 90.046 180.657,90.464 179.669,89.508 178.009 C 88.691 176.589,88.670 176.404,89.251 175.732 C 89.983 174.886,90.141 171.603,89.451 171.594 C 89.203 171.591,89.270 171.417,89.600 171.208 C 90.125 170.876,90.207 166.309,90.258 134.444 C 90.318 97.196,90.318 97.200,91.592 97.200 C 92.094 97.200,92.422 96.809,92.600 96.000 C 92.783 95.168,93.102 94.800,93.642 94.800 C 94.106 94.800,94.575 94.392,94.804 93.790 C 95.015 93.234,95.506 92.668,95.894 92.532 C 96.282 92.396,96.874 91.946,97.209 91.532 C 98.279 90.212,101.503 90.076,132.800 90.038 C 149.630 90.017,163.760 89.999,164.200 89.997 C 164.640 89.996,167.221 89.997,169.935 89.999 C 172.650 90.002,175.022 89.910,175.208 89.795 C 175.393 89.681,175.643 89.746,175.764 89.941 C 175.884 90.136,176.700 90.165,177.577 90.004 C 178.624 89.813,179.234 89.865,179.354 90.156 C 179.478 90.458,179.547 90.462,179.568 90.169 C 179.587 89.921,180.150 89.806,180.900 89.898 C 181.858 90.015,182.047 89.951,181.619 89.655 C 181.300 89.434,180.896 89.341,180.722 89.448 C 180.549 89.555,180.090 89.449,179.703 89.211 C 179.153 88.873,179.347 88.828,180.591 89.002 C 181.466 89.124,182.326 89.482,182.502 89.796 C 182.677 90.110,183.085 90.265,183.408 90.141 C 183.731 90.018,183.896 89.755,183.774 89.558 C 183.652 89.361,183.844 89.200,184.200 89.200 C 184.556 89.200,184.736 89.380,184.600 89.600 C 184.175 90.288,184.885 90.036,185.443 89.300 C 185.947 88.637,185.975 88.639,185.987 89.332 C 185.998 89.938,186.209 90.018,187.216 89.796 C 187.960 89.633,188.660 89.717,189.016 90.014 C 189.337 90.280,189.600 90.341,189.599 90.149 C 189.599 89.957,190.904 89.856,192.499 89.925 C 194.095 89.993,196.441 89.885,197.713 89.683 C 198.985 89.482,200.109 89.453,200.211 89.619 C 200.314 89.784,201.055 89.920,201.858 89.920 C 202.859 89.920,203.142 89.809,202.759 89.566 C 202.369 89.319,202.600 89.210,203.524 89.206 C 204.305 89.203,204.746 89.364,204.600 89.600 C 204.459 89.829,204.834 90.011,205.476 90.026 C 210.861 90.149,212.580 90.061,212.715 89.654 C 212.799 89.404,213.042 89.200,213.257 89.200 C 213.472 89.200,213.544 89.368,213.417 89.572 C 213.291 89.777,213.356 90.049,213.563 90.177 C 213.770 90.305,214.022 90.093,214.123 89.705 C 214.291 89.064,214.311 89.067,214.354 89.744 C 214.391 90.350,214.655 90.458,215.780 90.326 C 216.960 90.189,217.091 90.252,216.680 90.759 C 216.299 91.231,216.307 91.289,216.718 91.042 C 217.005 90.870,217.512 90.961,217.858 91.248 C 218.636 91.894,219.600 92.056,219.600 91.541 C 219.600 91.327,219.783 91.266,220.007 91.404 C 220.230 91.542,220.328 91.793,220.224 91.961 C 220.047 92.248,221.596 92.437,224.100 92.434 C 224.746 92.433,225.200 92.650,225.200 92.961 C 225.200 93.317,225.559 93.427,226.300 93.298 C 227.377 93.112,227.383 93.122,226.600 93.783 C 226.160 94.155,226.033 94.340,226.318 94.195 C 226.602 94.050,227.052 94.108,227.318 94.324 C 227.583 94.540,228.847 94.807,230.127 94.919 C 232.008 95.082,233.891 95.600,232.604 95.600 C 232.424 95.600,232.799 96.050,233.438 96.600 C 234.077 97.149,234.806 97.599,235.057 97.600 C 235.653 97.600,236.000 98.545,236.000 100.166 C 236.000 101.503,234.597 102.966,231.364 105.000 C 227.701 107.305,226.291 108.443,222.980 111.766 C 220.990 113.765,218.023 117.355,216.389 119.744 C 213.687 123.694,213.070 124.330,209.608 126.742 C 204.471 130.321,200.903 133.444,197.995 136.910 C 194.878 140.624,194.989 140.477,194.277 141.838 C 193.942 142.477,193.336 143.360,192.931 143.800 C 192.525 144.240,191.878 145.092,191.492 145.693 C 191.107 146.294,189.128 147.903,187.096 149.270 C 179.456 154.406,176.288 157.547,171.669 164.564 C 170.090 166.964,168.453 169.124,168.032 169.364 C 160.556 173.626,151.778 181.733,149.151 186.800 C 148.147 188.736,143.481 193.600,142.628 193.600 C 142.108 193.600,140.038 195.076,137.800 197.041 C 137.140 197.621,135.730 198.839,134.668 199.748 C 133.605 200.656,132.075 202.288,131.268 203.373 C 128.819 206.664,127.600 208.417,127.600 208.645 C 127.600 209.271,124.226 213.444,123.138 214.164 C 121.701 215.115,119.850 216.356,116.747 218.448 C 114.403 220.029,106.801 227.452,106.799 228.160 C 106.799 228.402,106.256 229.230,105.594 230.000 C 104.931 230.770,103.824 232.328,103.133 233.462 C 101.367 236.362,98.601 236.816,97.589 234.373 C 97.327 233.740,96.692 232.733,96.178 232.135 C 95.432 231.267,94.313 228.183,94.218 226.733 C 94.208 226.587,94.036 226.317,93.836 226.133 C 93.624 225.940,93.592 226.010,93.759 226.300 C 93.918 226.575,93.949 226.800,93.829 226.800 C 93.361 226.800,92.400 223.823,92.400 222.375 C 92.400 221.535,92.217 220.734,91.993 220.596 C 91.770 220.458,91.691 220.177,91.817 219.972 C 91.944 219.768,91.846 219.600,91.600 219.600 C 91.354 219.600,91.280 219.375,91.435 219.100 C 91.659 218.704,91.607 218.702,91.187 219.092 C 90.746 219.500,90.748 219.756,91.200 220.600 C 91.588 221.325,91.621 221.739,91.314 222.046 C 90.657 222.703,90.179 219.348,90.820 218.576 C 91.091 218.249,91.198 217.865,91.057 217.724 C 90.916 217.582,90.797 217.722,90.794 218.033 C 90.789 218.500,90.719 218.494,90.400 218.000 C 90.136 217.592,90.020 218.680,90.038 221.400 C 90.052 223.600,90.154 225.175,90.265 224.900 C 90.480 224.367,91.609 224.196,91.587 224.700 C 91.580 224.865,91.310 225.349,90.987 225.776 C 89.915 227.195,90.189 232.243,91.400 233.365 C 92.279 234.179,92.401 234.626,92.406 237.046 C 92.413 240.079,92.615 240.634,93.795 240.858 C 94.233 240.941,94.659 241.367,94.742 241.805 C 95.143 243.919,104.414 243.866,105.221 241.745 C 105.427 241.203,105.909 240.800,106.351 240.800 C 106.848 240.800,107.270 240.373,107.540 239.600 C 107.770 238.940,108.242 238.400,108.589 238.400 C 108.936 238.400,109.387 237.961,109.591 237.424 C 109.795 236.888,110.328 236.253,110.776 236.013 C 111.224 235.773,111.692 235.177,111.817 234.688 C 111.941 234.200,114.563 231.283,117.644 228.207 C 121.685 224.172,123.192 222.412,123.055 221.890 C 122.914 221.349,123.152 221.110,124.001 220.940 C 124.715 220.797,125.215 220.396,125.351 219.856 C 125.470 219.385,125.979 218.820,126.483 218.600 C 126.987 218.380,127.458 217.795,127.528 217.300 C 127.611 216.718,127.931 216.400,128.436 216.400 C 128.871 216.400,129.410 215.977,129.653 215.444 C 129.892 214.918,130.518 214.292,131.044 214.053 C 131.570 213.813,132.000 213.274,132.000 212.855 C 132.000 212.431,132.353 212.001,132.795 211.885 C 133.233 211.771,133.764 211.221,133.976 210.663 C 134.188 210.105,134.730 209.451,135.181 209.210 C 135.631 208.969,136.000 208.526,136.000 208.226 C 136.000 207.926,136.630 207.050,137.400 206.280 C 138.170 205.510,138.800 204.502,138.800 204.040 C 138.800 203.421,139.051 203.200,139.757 203.200 C 140.442 203.200,140.784 202.918,140.963 202.206 C 141.117 201.593,141.593 201.117,142.206 200.963 C 142.918 200.784,143.200 200.442,143.200 199.757 C 143.200 199.230,143.425 198.779,143.700 198.754 C 143.975 198.728,144.409 198.683,144.665 198.654 C 144.921 198.624,145.483 198.194,145.915 197.697 C 146.346 197.200,147.255 196.600,147.933 196.363 C 148.612 196.127,149.277 195.589,149.410 195.167 C 149.544 194.746,150.093 194.292,150.630 194.157 C 151.198 194.014,151.703 193.527,151.837 192.994 C 151.964 192.489,152.410 191.986,152.829 191.877 C 153.248 191.767,153.764 191.221,153.976 190.663 C 154.188 190.105,154.730 189.451,155.181 189.210 C 155.631 188.969,156.000 188.526,156.000 188.226 C 156.000 187.926,156.630 187.050,157.400 186.280 C 158.170 185.510,158.800 184.502,158.800 184.040 C 158.800 183.412,159.051 183.200,159.792 183.200 C 160.517 183.200,160.852 182.931,161.036 182.200 C 161.174 181.650,161.523 181.200,161.813 181.200 C 162.102 181.200,162.878 180.660,163.538 180.000 C 164.198 179.340,164.906 178.800,165.111 178.800 C 165.316 178.800,166.004 178.306,166.642 177.703 C 167.279 177.099,168.160 176.415,168.600 176.183 C 169.040 175.950,169.388 175.382,169.373 174.920 C 169.356 174.409,169.539 174.155,169.841 174.271 C 170.627 174.573,172.000 173.646,172.000 172.814 C 172.000 172.332,172.328 172.009,172.900 171.928 C 173.395 171.858,173.973 171.405,174.185 170.922 C 174.397 170.439,174.989 169.939,175.500 169.811 C 176.012 169.682,176.402 169.357,176.368 169.089 C 176.225 167.967,176.457 167.647,177.500 167.527 C 178.271 167.438,178.637 167.142,178.723 166.538 C 178.796 166.026,179.225 165.580,179.779 165.441 C 180.326 165.304,180.813 164.804,180.956 164.231 C 181.109 163.621,181.539 163.208,182.101 163.128 C 182.647 163.050,183.046 162.679,183.117 162.181 C 183.186 161.701,183.723 161.178,184.417 160.916 C 185.207 160.618,185.600 160.192,185.600 159.635 C 185.600 159.053,185.855 158.800,186.442 158.800 C 186.906 158.800,187.629 158.363,188.049 157.829 C 188.469 157.295,189.431 156.654,190.187 156.404 C 190.943 156.155,191.672 155.602,191.808 155.176 C 191.943 154.750,192.476 154.296,192.992 154.166 C 193.531 154.031,194.031 153.532,194.166 152.993 C 194.310 152.419,194.750 152.006,195.301 151.928 C 195.847 151.850,196.246 151.479,196.317 150.981 C 196.386 150.501,196.923 149.978,197.617 149.716 C 198.389 149.425,198.800 148.989,198.800 148.463 C 198.800 147.935,199.106 147.611,199.684 147.528 C 200.242 147.447,200.653 147.032,200.800 146.400 C 200.947 145.768,201.358 145.353,201.916 145.272 C 202.444 145.196,202.892 144.774,203.030 144.222 C 203.157 143.715,203.698 143.102,204.231 142.859 C 204.764 142.616,205.200 142.139,205.200 141.799 C 205.200 141.459,205.667 141.002,206.239 140.785 C 206.810 140.568,207.367 140.048,207.477 139.629 C 207.586 139.210,208.089 138.764,208.594 138.637 C 209.127 138.504,209.614 137.998,209.756 137.431 C 209.909 136.821,210.339 136.408,210.901 136.328 C 211.465 136.248,211.846 135.878,211.923 135.338 C 211.997 134.814,212.428 134.379,213.017 134.232 C 213.608 134.083,214.085 133.599,214.237 132.994 C 214.410 132.306,214.762 132.000,215.381 132.000 C 216.331 132.000,217.815 130.673,217.479 130.125 C 217.369 129.946,217.840 129.779,218.525 129.753 C 219.270 129.725,219.939 129.416,220.186 128.985 C 220.414 128.588,221.635 127.202,222.900 125.904 C 224.165 124.607,225.200 123.383,225.200 123.185 C 225.200 122.504,231.363 116.743,232.681 116.192 C 233.406 115.889,234.000 115.357,234.000 115.011 C 234.000 114.664,234.435 114.215,234.966 114.013 C 235.497 113.811,236.049 113.276,236.193 112.823 C 236.339 112.362,236.798 112.000,237.236 112.000 C 237.683 112.000,238.214 111.568,238.477 110.990 C 238.730 110.435,239.356 109.876,239.869 109.747 C 240.519 109.584,240.800 109.225,240.800 108.557 C 240.800 107.902,241.027 107.600,241.520 107.600 C 242.956 107.600,243.200 106.787,243.200 101.998 L 243.200 97.357 241.900 96.129 C 241.185 95.454,240.105 94.785,239.500 94.643 C 238.895 94.501,238.400 94.125,238.400 93.806 C 238.400 92.946,237.081 92.398,235.130 92.449 C 232.357 92.520,231.989 92.439,231.717 91.700 C 231.187 90.264,229.160 89.899,228.392 91.100 C 227.998 91.717,227.968 91.693,228.135 90.900 C 228.313 90.058,228.192 90.000,226.263 90.006 C 224.706 90.011,224.347 90.115,224.800 90.432 C 225.256 90.751,225.159 90.783,224.400 90.563 C 223.850 90.404,223.200 90.273,222.956 90.270 C 222.711 90.268,222.531 89.992,222.556 89.657 C 222.614 88.851,220.937 88.013,219.251 88.006 C 218.037 88.001,217.957 88.067,218.451 88.670 C 218.925 89.248,218.849 89.241,217.892 88.619 C 217.025 88.054,216.374 87.958,214.892 88.173 C 213.851 88.325,212.685 88.425,212.300 88.396 C 211.915 88.367,210.610 88.339,209.400 88.333 C 208.190 88.328,206.120 88.315,204.800 88.304 C 194.562 88.218,184.833 88.233,184.000 88.336 C 183.450 88.403,180.300 88.370,177.000 88.261 C 173.700 88.152,171.416 88.184,171.924 88.331 C 172.937 88.626,173.167 89.299,172.330 89.520 C 171.916 89.630,171.920 89.577,172.348 89.277 C 173.239 88.653,170.236 88.351,160.285 88.063 C 153.931 87.880,151.081 87.656,150.877 87.325 C 149.823 85.617,139.472 85.382,136.200 86.991 C 133.080 88.526,117.896 88.530,114.937 86.996 C 112.984 85.984,103.704 85.242,100.800 85.866 M165.600 88.800 C 165.050 88.976,164.240 89.126,163.800 89.132 L 163.000 89.144 163.800 88.800 C 164.240 88.611,165.050 88.462,165.600 88.468 L 166.600 88.480 165.600 88.800 M191.400 88.800 C 191.692 89.272,190.806 89.279,188.600 88.823 L 187.000 88.492 189.076 88.446 C 190.218 88.421,191.264 88.580,191.400 88.800 M199.800 88.800 C 198.641 89.298,194.429 89.298,195.200 88.800 C 195.530 88.587,196.880 88.422,198.200 88.434 C 199.907 88.450,200.369 88.555,199.800 88.800 M125.505 89.475 C 125.122 89.575,124.402 89.579,123.905 89.483 C 123.407 89.387,123.720 89.305,124.600 89.301 C 125.480 89.296,125.887 89.375,125.505 89.475 M300.400 158.200 C 299.655 158.750,298.716 159.200,298.314 159.200 C 297.912 159.200,297.387 159.630,297.147 160.156 C 296.908 160.682,296.268 161.314,295.725 161.561 C 294.878 161.947,294.775 162.193,294.994 163.305 C 295.162 164.160,295.122 164.416,294.875 164.059 C 293.928 162.686,292.353 164.721,292.541 167.075 C 292.597 167.776,292.498 168.260,292.321 168.151 C 292.145 168.042,291.997 168.188,291.994 168.476 C 291.989 168.858,291.885 168.838,291.611 168.403 C 291.289 167.895,291.157 167.889,290.717 168.362 C 290.290 168.821,290.304 168.867,290.800 168.629 C 291.130 168.470,291.067 168.612,290.660 168.944 C 290.229 169.295,290.046 169.751,290.222 170.035 C 290.388 170.304,290.361 170.427,290.162 170.309 C 289.483 169.906,288.000 170.764,288.000 171.560 C 288.000 172.005,287.639 172.461,287.166 172.611 C 286.707 172.756,286.150 173.398,285.927 174.038 C 285.704 174.677,285.265 175.200,284.951 175.200 C 284.082 175.200,283.466 177.153,284.091 177.925 C 284.487 178.414,284.489 178.487,284.100 178.253 C 283.641 177.977,283.408 178.443,283.563 179.330 C 283.594 179.511,283.435 179.545,283.210 179.406 C 282.984 179.267,282.800 179.433,282.800 179.776 C 282.800 180.119,282.485 180.397,282.100 180.394 C 281.513 180.389,281.495 180.328,281.988 180.016 C 282.312 179.811,282.437 179.504,282.267 179.333 C 282.096 179.163,281.789 179.288,281.584 179.612 C 281.059 180.443,281.108 181.304,281.662 180.962 C 281.950 180.784,282.015 180.852,281.834 181.145 C 281.675 181.402,281.376 181.508,281.169 181.381 C 280.569 181.010,279.200 181.599,279.200 182.227 C 279.200 182.542,279.380 182.800,279.600 182.800 C 279.820 182.800,280.000 182.974,280.000 183.187 C 280.000 183.401,279.730 183.471,279.400 183.345 C 278.798 183.114,278.537 183.798,279.100 184.129 C 279.902 184.601,281.251 183.589,281.002 182.703 C 280.809 182.017,280.845 181.942,281.152 182.389 C 281.500 182.895,281.594 182.880,281.824 182.282 C 281.971 181.899,282.296 181.610,282.546 181.640 C 283.563 181.762,283.920 181.557,284.180 180.700 C 284.346 180.155,284.535 179.997,284.660 180.300 C 284.926 180.944,285.719 180.957,285.505 180.315 C 285.416 180.048,285.758 179.445,286.265 178.975 C 286.772 178.505,287.055 177.975,286.893 177.796 C 286.732 177.618,286.892 177.577,287.249 177.704 C 287.672 177.855,288.074 177.609,288.399 177.002 C 288.674 176.488,289.255 175.974,289.690 175.861 C 290.125 175.747,290.361 175.460,290.215 175.224 C 290.069 174.988,290.230 174.687,290.572 174.555 C 290.915 174.424,291.101 174.163,290.985 173.976 C 290.869 173.788,291.229 173.338,291.784 172.974 C 292.339 172.610,292.704 172.169,292.595 171.993 C 292.487 171.817,292.938 171.218,293.599 170.662 C 294.260 170.106,294.800 169.280,294.800 168.826 C 294.800 168.372,294.991 168.000,295.224 168.000 C 295.457 168.000,295.519 167.792,295.362 167.538 C 295.205 167.284,295.248 167.182,295.457 167.312 C 295.667 167.441,296.100 167.382,296.419 167.180 C 296.925 166.860,296.924 166.811,296.411 166.806 C 296.019 166.802,296.122 166.590,296.718 166.173 C 297.210 165.828,297.507 165.373,297.377 165.163 C 297.247 164.952,297.379 164.830,297.670 164.890 C 297.962 164.951,298.155 164.775,298.100 164.500 C 298.032 164.162,298.557 164.000,299.720 164.000 C 301.338 164.000,304.810 168.275,304.798 170.252 C 304.797 170.443,305.327 172.310,305.975 174.400 C 309.949 187.200,309.644 181.151,309.514 244.610 L 309.400 300.621 307.890 302.678 C 306.000 305.252,302.336 308.494,300.487 309.228 C 299.438 309.644,188.785 309.801,186.000 309.390 C 185.010 309.244,183.480 308.803,182.600 308.411 C 181.720 308.019,180.190 307.570,179.200 307.413 C 178.210 307.257,176.433 306.695,175.252 306.164 C 174.070 305.634,172.768 305.200,172.357 305.200 C 171.501 305.200,166.653 302.710,165.748 301.805 C 165.415 301.472,164.988 301.200,164.798 301.200 C 164.242 301.200,164.771 299.165,165.647 297.934 C 166.091 297.310,166.731 296.800,167.070 296.800 C 167.408 296.800,168.039 296.350,168.471 295.800 C 168.904 295.250,169.438 294.800,169.658 294.800 C 170.275 294.800,171.196 293.733,170.881 293.383 C 170.726 293.212,170.805 293.189,171.055 293.331 C 171.305 293.474,171.732 293.323,172.004 292.996 C 172.276 292.668,172.654 292.400,172.844 292.400 C 173.402 292.400,174.800 291.066,174.800 290.535 C 174.800 290.267,175.008 289.919,175.262 289.762 C 175.575 289.568,175.615 289.657,175.385 290.038 C 175.101 290.510,175.151 290.515,175.699 290.071 C 176.059 289.780,176.260 289.301,176.147 289.007 C 176.027 288.694,176.315 288.354,176.840 288.187 C 178.080 287.794,179.340 286.550,179.022 286.035 C 178.871 285.792,178.982 285.695,179.280 285.809 C 179.567 285.919,180.040 285.629,180.330 285.163 C 180.715 284.547,180.725 284.399,180.368 284.620 C 180.067 284.806,179.979 284.758,180.141 284.496 C 180.286 284.261,180.179 283.965,179.902 283.838 C 179.626 283.711,179.786 283.702,180.258 283.817 C 181.539 284.131,182.671 282.756,182.461 281.141 C 182.443 280.999,182.781 280.975,183.214 281.088 C 183.649 281.201,184.000 281.094,184.000 280.847 C 184.000 280.601,183.826 280.400,183.613 280.400 C 183.399 280.400,183.322 280.148,183.440 279.840 C 183.558 279.533,183.462 279.162,183.227 279.017 C 182.992 278.872,182.800 278.951,182.800 279.194 C 182.800 279.437,182.504 279.582,182.141 279.518 C 181.779 279.453,181.396 279.650,181.290 279.956 C 181.172 280.294,181.273 280.402,181.548 280.232 C 181.797 280.078,182.000 280.143,182.000 280.376 C 182.000 280.609,181.832 280.800,181.626 280.800 C 181.421 280.800,181.325 281.295,181.413 281.900 C 181.566 282.956,181.555 282.964,181.125 282.100 C 180.641 281.126,179.819 280.922,179.362 281.662 C 179.191 281.937,179.251 282.015,179.511 281.855 C 179.749 281.708,180.058 281.770,180.196 281.993 C 180.334 282.217,180.173 282.400,179.838 282.400 C 179.122 282.400,178.300 283.742,178.714 284.234 C 178.871 284.421,178.693 284.339,178.318 284.052 C 177.544 283.462,176.800 283.753,176.800 284.647 C 176.800 284.999,176.991 285.129,177.262 284.962 C 177.548 284.785,177.615 284.852,177.438 285.138 C 177.281 285.392,176.715 285.600,176.179 285.600 C 175.606 285.600,174.775 286.084,174.157 286.778 C 173.579 287.426,172.633 288.011,172.054 288.078 C 171.447 288.148,170.844 288.556,170.632 289.038 C 170.429 289.499,169.754 290.068,169.132 290.303 C 168.320 290.610,168.000 291.003,168.000 291.696 C 168.000 292.541,167.850 292.639,166.803 292.486 C 165.852 292.346,165.365 292.567,164.442 293.555 C 163.802 294.240,162.987 294.800,162.630 294.800 C 162.272 294.800,161.805 295.262,161.590 295.826 C 161.063 297.211,161.099 297.708,161.700 297.347 C 162.057 297.133,162.047 297.236,161.666 297.706 C 161.372 298.068,161.240 298.541,161.372 298.755 C 161.505 298.970,161.116 299.203,160.507 299.273 C 158.957 299.451,158.742 304.906,160.276 305.125 C 160.889 305.212,161.189 305.572,161.276 306.325 C 161.373 307.162,161.643 307.428,162.500 307.527 C 163.269 307.615,163.600 307.881,163.600 308.412 C 163.600 309.476,164.983 310.098,166.992 309.937 C 168.156 309.844,168.642 309.946,168.522 310.258 C 168.076 311.421,170.111 312.000,174.640 312.000 C 178.740 312.000,179.148 312.069,179.664 312.846 C 180.495 314.097,183.221 314.381,194.277 314.369 C 203.781 314.359,204.001 314.377,205.222 315.279 L 206.469 316.200 233.534 316.271 C 262.205 316.347,277.112 315.894,277.480 314.936 C 277.779 314.157,286.624 314.164,286.923 314.944 C 287.772 317.156,311.609 317.509,311.925 315.315 C 312.011 314.712,312.377 314.411,313.125 314.324 C 313.962 314.227,314.228 313.957,314.327 313.100 C 314.425 312.246,314.665 312.000,315.398 312.000 C 316.242 312.000,316.371 311.768,316.616 309.813 C 316.815 308.222,317.083 307.564,317.601 307.400 C 318.769 307.029,318.789 306.523,318.795 276.858 L 318.800 248.315 317.800 247.529 L 316.800 246.742 316.768 211.471 C 316.733 172.443,316.645 169.889,315.291 168.793 C 314.664 168.285,314.400 167.639,314.400 166.610 C 314.400 164.760,313.788 163.600,312.812 163.600 C 312.281 163.600,312.015 163.269,311.927 162.500 C 311.838 161.729,311.542 161.363,310.938 161.277 C 310.413 161.202,309.979 160.772,309.830 160.177 C 309.681 159.585,309.296 159.200,308.851 159.200 C 308.447 159.200,307.631 158.750,307.038 158.200 C 306.171 157.397,305.544 157.200,303.857 157.200 C 302.243 157.200,301.441 157.432,300.400 158.200 M276.977 184.550 C 276.846 185.072,276.302 185.698,275.769 185.941 C 275.236 186.184,274.800 186.567,274.800 186.791 C 274.800 187.441,275.520 187.266,275.995 186.500 C 276.396 185.854,276.421 185.860,276.314 186.575 C 276.238 187.084,275.719 187.471,274.799 187.704 C 273.042 188.149,272.549 188.643,272.106 190.400 C 271.854 191.399,271.500 191.837,270.870 191.929 C 270.385 191.999,270.085 192.214,270.203 192.405 C 270.321 192.597,269.919 192.719,269.309 192.677 C 268.372 192.612,268.200 192.755,268.200 193.600 C 268.200 195.109,267.670 195.756,266.934 195.145 C 266.325 194.640,265.603 195.220,265.619 196.200 C 265.627 196.669,266.585 198.000,266.916 198.000 C 267.041 198.000,267.458 197.685,267.843 197.300 C 268.228 196.915,268.691 196.578,268.871 196.550 C 269.052 196.523,269.380 196.478,269.600 196.450 C 269.820 196.423,270.000 196.198,270.000 195.951 C 270.000 195.624,269.850 195.627,269.447 195.961 C 269.021 196.314,268.841 196.284,268.667 195.831 C 268.524 195.458,268.630 195.313,268.954 195.438 C 269.237 195.546,269.903 195.273,270.434 194.831 C 270.965 194.389,271.175 194.021,270.900 194.013 C 270.045 193.991,270.351 193.205,271.400 192.727 C 271.950 192.477,272.400 192.035,272.400 191.746 C 272.400 191.457,272.905 190.959,273.522 190.640 C 274.139 190.321,274.855 189.596,275.114 189.030 C 275.372 188.463,275.857 188.000,276.191 188.000 C 276.526 188.000,276.800 187.789,276.800 187.531 C 276.800 187.274,277.115 186.703,277.500 186.263 C 277.885 185.823,277.975 185.594,277.700 185.755 C 277.425 185.916,277.200 185.861,277.200 185.634 C 277.200 185.391,277.677 185.315,278.351 185.450 C 279.067 185.593,279.620 185.491,279.813 185.178 C 279.994 184.887,279.961 184.777,279.735 184.917 C 279.521 185.049,279.093 184.807,278.785 184.379 C 278.026 183.326,277.266 183.398,276.977 184.550 M273.900 189.433 C 273.519 189.815,272.755 189.197,273.039 188.738 C 273.207 188.464,273.431 188.471,273.718 188.758 C 273.954 188.994,274.036 189.298,273.900 189.433 M270.584 190.827 C 270.439 191.061,270.416 191.349,270.533 191.467 C 270.820 191.753,271.600 191.248,271.600 190.776 C 271.600 190.265,270.909 190.299,270.584 190.827 M264.506 197.915 C 264.118 198.551,263.575 198.995,263.300 198.902 C 263.025 198.809,262.800 198.936,262.800 199.184 C 262.800 199.432,262.504 199.582,262.141 199.518 C 261.779 199.453,261.396 199.650,261.290 199.956 C 261.172 200.294,261.273 200.402,261.548 200.232 C 261.797 200.078,262.000 200.138,262.000 200.365 C 262.000 200.592,261.415 200.933,260.700 201.124 C 259.856 201.348,259.419 201.702,259.455 202.131 C 259.485 202.494,259.350 202.693,259.155 202.572 C 258.656 202.264,258.712 202.952,259.228 203.468 C 259.532 203.772,259.335 203.861,258.547 203.774 C 257.110 203.617,256.642 203.928,257.238 204.645 C 257.500 204.961,257.598 205.335,257.457 205.476 C 257.316 205.618,257.189 205.478,257.175 205.167 C 257.161 204.855,256.987 205.005,256.788 205.500 C 256.589 205.995,256.229 206.400,255.989 206.400 C 255.749 206.400,255.664 206.220,255.800 206.000 C 255.936 205.780,255.863 205.600,255.638 205.600 C 255.412 205.600,255.042 205.948,254.814 206.374 C 254.292 207.350,254.281 208.004,254.800 207.200 C 255.122 206.702,255.189 206.736,255.194 207.398 C 255.199 208.044,255.514 207.862,256.846 206.448 C 258.147 205.067,258.574 204.816,258.884 205.251 C 259.192 205.682,259.230 205.657,259.063 205.133 C 258.880 204.558,259.238 204.202,260.400 203.800 C 261.757 203.331,261.995 203.076,261.561 202.553 C 261.112 202.012,261.507 201.779,262.549 201.969 C 262.741 202.004,262.803 201.785,262.687 201.483 C 262.571 201.181,262.721 200.933,263.021 200.933 C 263.320 200.933,263.455 201.111,263.321 201.328 C 263.184 201.549,263.280 201.598,263.538 201.438 C 263.792 201.281,264.000 200.803,264.000 200.376 C 264.000 199.949,264.191 199.600,264.424 199.600 C 264.657 199.600,264.736 199.780,264.600 200.000 C 264.112 200.790,265.080 200.380,265.990 199.410 C 266.806 198.542,266.839 198.390,266.262 198.169 C 265.901 198.030,265.696 197.767,265.809 197.586 C 265.921 197.404,265.833 197.144,265.613 197.008 C 265.392 196.872,264.895 197.280,264.506 197.915 M251.883 209.879 C 251.372 210.012,251.240 210.296,251.423 210.872 C 251.638 211.551,251.546 211.637,250.839 211.413 C 250.180 211.203,250.000 211.316,250.000 211.936 C 250.000 212.512,249.797 212.672,249.245 212.528 C 248.830 212.419,248.362 212.538,248.205 212.792 C 247.770 213.496,248.303 213.779,248.990 213.208 C 249.494 212.790,249.600 212.815,249.600 213.351 C 249.600 213.708,249.319 214.000,248.976 214.000 C 248.633 214.000,248.459 214.172,248.589 214.383 C 248.972 215.002,249.943 214.405,250.077 213.466 C 250.144 212.990,250.605 212.422,251.100 212.205 C 251.595 211.988,252.000 211.583,252.000 211.305 C 252.000 211.027,252.191 210.800,252.424 210.800 C 252.657 210.800,252.745 210.635,252.621 210.434 C 252.497 210.233,252.621 209.977,252.898 209.866 C 253.515 209.617,252.860 209.625,251.883 209.879 M90.006 213.900 C 90.003 214.395,90.180 214.800,90.400 214.800 C 90.901 214.800,90.901 214.376,90.400 213.600 C 90.086 213.115,90.011 213.172,90.006 213.900 M247.216 215.359 C 246.951 216.054,246.627 216.341,246.320 216.151 C 245.946 215.920,245.946 215.818,246.320 215.693 C 246.895 215.502,246.964 214.800,246.408 214.800 C 246.192 214.800,245.906 215.234,245.773 215.765 C 245.629 216.340,245.140 216.829,244.565 216.973 C 243.650 217.203,243.165 218.400,243.987 218.400 C 244.201 218.400,244.271 218.670,244.145 219.000 C 244.018 219.330,243.743 219.600,243.534 219.600 C 243.324 219.600,243.288 219.375,243.453 219.100 C 243.693 218.701,243.629 218.700,243.140 219.097 C 242.803 219.370,242.398 219.465,242.241 219.308 C 241.916 218.982,241.215 219.940,241.206 220.724 C 241.203 221.018,241.402 221.122,241.662 220.962 C 241.950 220.784,242.015 220.852,241.834 221.145 C 241.675 221.402,241.376 221.508,241.169 221.381 C 240.569 221.010,239.200 221.599,239.200 222.227 C 239.200 222.542,239.399 222.800,239.643 222.800 C 239.886 222.800,239.999 223.026,239.893 223.302 C 239.787 223.578,239.948 224.035,240.250 224.318 C 240.757 224.792,240.965 224.646,240.847 223.900 C 240.821 223.735,241.171 223.600,241.624 223.600 C 242.077 223.600,242.365 223.465,242.266 223.300 C 242.166 223.135,242.322 222.780,242.613 222.512 C 242.903 222.243,243.215 222.153,243.305 222.312 C 243.395 222.470,243.411 222.368,243.341 222.085 C 243.271 221.802,243.480 221.467,243.807 221.342 C 244.133 221.217,244.400 220.796,244.400 220.406 C 244.400 219.563,245.340 218.683,245.791 219.103 C 245.966 219.267,245.904 219.007,245.654 218.526 C 245.034 217.333,245.081 216.885,245.733 217.776 C 246.195 218.408,246.267 218.419,246.267 217.853 C 246.267 217.494,246.106 217.200,245.910 217.200 C 245.713 217.200,245.664 217.020,245.801 216.799 C 245.962 216.538,246.300 216.532,246.768 216.783 C 247.636 217.247,248.751 215.391,248.034 214.674 C 247.762 214.402,247.495 214.625,247.216 215.359 M238.229 224.461 C 237.883 225.155,237.600 225.740,237.600 225.761 C 237.600 225.783,238.014 225.800,238.520 225.800 C 239.207 225.800,239.440 225.572,239.440 224.900 C 239.440 224.405,239.251 223.997,239.020 223.994 C 238.789 223.991,238.870 223.813,239.200 223.600 C 239.550 223.374,239.604 223.210,239.329 223.206 C 239.070 223.203,238.575 223.768,238.229 224.461 M236.973 224.565 C 236.829 225.140,236.340 225.629,235.765 225.773 C 235.234 225.906,234.800 226.192,234.800 226.408 C 234.800 226.972,235.496 226.892,235.735 226.300 C 235.863 225.983,235.948 226.039,235.968 226.453 C 235.986 226.813,235.622 227.206,235.160 227.326 C 234.177 227.583,234.515 228.453,235.520 228.255 C 237.160 227.931,237.562 227.552,237.220 226.652 C 236.997 226.065,237.071 225.517,237.443 225.009 C 238.096 224.115,238.157 223.600,237.608 223.600 C 237.392 223.600,237.106 224.034,236.973 224.565 M232.533 228.631 C 232.400 228.978,232.560 229.531,232.888 229.860 C 233.715 230.687,235.111 229.456,234.365 228.558 C 233.748 227.814,232.832 227.850,232.533 228.631 M231.600 230.637 C 231.600 230.988,231.240 231.369,230.800 231.484 C 230.360 231.599,230.000 231.833,230.000 232.003 C 230.000 232.174,229.550 232.426,229.000 232.564 C 227.866 232.849,227.634 233.983,228.700 234.032 C 229.118 234.050,229.199 234.144,228.900 234.265 C 228.192 234.551,228.279 235.067,229.035 235.067 C 229.690 235.067,230.561 233.385,230.205 232.808 C 229.943 232.385,231.047 231.967,231.733 232.230 C 232.106 232.373,232.267 232.067,232.267 231.217 C 232.267 230.548,232.117 230.000,231.933 230.000 C 231.750 230.000,231.600 230.287,231.600 230.637 M225.996 235.608 C 225.758 236.053,225.689 236.621,225.843 236.870 C 226.016 237.149,225.945 237.213,225.658 237.036 C 225.003 236.631,223.600 237.147,223.600 237.794 C 223.600 238.090,223.825 238.424,224.100 238.535 C 224.399 238.656,224.318 238.750,223.900 238.768 C 222.644 238.825,223.302 240.041,224.705 240.254 C 225.256 240.338,226.184 238.955,226.217 238.000 C 226.228 237.670,226.467 237.449,226.748 237.510 C 227.029 237.570,227.157 237.454,227.032 237.252 C 226.907 237.049,227.074 236.781,227.402 236.654 C 227.731 236.528,228.000 236.203,228.000 235.933 C 228.000 235.549,227.893 235.547,227.520 235.920 C 227.256 236.184,226.761 236.395,226.420 236.388 C 225.910 236.378,225.924 236.304,226.500 235.968 C 227.252 235.530,227.448 234.800,226.814 234.800 C 226.602 234.800,226.233 235.164,225.996 235.608 M221.596 240.008 C 221.358 240.453,221.289 241.021,221.443 241.270 C 221.616 241.549,221.545 241.613,221.258 241.436 C 220.587 241.021,219.200 241.554,219.200 242.227 C 219.200 242.542,219.380 242.800,219.600 242.800 C 219.820 242.800,220.000 242.974,220.000 243.187 C 220.000 243.401,219.730 243.471,219.400 243.345 C 219.004 243.193,218.789 243.367,218.768 243.857 C 218.751 244.278,218.649 244.383,218.535 244.100 C 218.424 243.825,218.090 243.600,217.794 243.600 C 217.192 243.600,216.620 244.985,216.981 245.569 C 217.108 245.776,217.002 246.075,216.745 246.234 C 216.452 246.415,216.384 246.350,216.562 246.062 C 216.722 245.802,216.618 245.603,216.324 245.606 C 215.540 245.615,214.582 246.316,214.908 246.641 C 215.065 246.798,215.012 247.144,214.792 247.410 C 214.514 247.745,214.577 248.049,214.995 248.396 C 215.328 248.672,215.600 248.727,215.600 248.517 C 215.600 248.308,216.005 248.151,216.500 248.168 C 217.019 248.187,217.358 247.988,217.300 247.700 C 217.245 247.425,217.457 247.200,217.771 247.200 C 218.520 247.200,219.671 246.038,219.383 245.572 C 219.259 245.373,219.409 245.305,219.715 245.423 C 220.021 245.540,220.526 245.324,220.836 244.941 C 221.201 244.492,221.223 244.353,220.900 244.547 C 220.625 244.712,220.400 244.683,220.400 244.481 C 220.400 244.280,220.985 243.947,221.700 243.741 C 222.668 243.462,223.000 243.137,223.000 242.471 C 223.000 241.978,223.268 241.408,223.597 241.204 C 224.040 240.929,224.077 240.717,223.742 240.382 C 223.419 240.059,223.214 240.054,223.022 240.365 C 222.874 240.604,222.448 240.795,222.076 240.788 C 221.456 240.777,221.458 240.742,222.100 240.368 C 222.852 239.930,223.048 239.200,222.414 239.200 C 222.202 239.200,221.833 239.564,221.596 240.008 M212.552 248.581 C 212.429 248.900,212.446 249.350,212.588 249.581 C 212.731 249.811,212.567 250.000,212.224 250.000 C 211.515 250.000,210.264 251.136,209.885 252.124 C 209.743 252.493,209.376 252.689,209.056 252.566 C 208.740 252.445,208.363 252.536,208.220 252.768 C 208.065 253.019,208.194 253.100,208.539 252.968 C 209.327 252.666,209.840 253.593,209.151 254.075 C 208.698 254.392,208.707 254.432,209.200 254.296 C 209.530 254.205,209.807 253.877,209.815 253.566 C 209.843 252.486,210.751 251.348,211.128 251.919 C 211.402 252.334,211.573 252.314,211.984 251.819 C 212.332 251.400,212.353 251.200,212.049 251.200 C 211.802 251.200,211.600 251.001,211.600 250.757 C 211.600 250.514,211.870 250.418,212.200 250.545 C 212.530 250.671,212.800 250.601,212.800 250.387 C 212.800 250.174,213.220 250.000,213.733 250.000 C 215.046 250.000,215.310 249.585,214.539 248.732 C 213.742 247.852,212.858 247.785,212.552 248.581 M207.483 254.279 C 206.969 254.413,206.840 254.695,207.025 255.280 C 207.211 255.865,207.131 256.039,206.742 255.897 C 206.444 255.789,206.249 255.484,206.310 255.220 C 206.370 254.956,206.235 254.855,206.010 254.994 C 205.374 255.387,205.525 256.161,206.336 256.667 C 207.143 257.171,207.724 256.929,207.938 256.000 C 208.213 254.802,208.352 254.001,208.277 254.046 C 208.235 254.072,207.878 254.177,207.483 254.279 M203.762 257.262 C 203.591 257.537,203.651 257.615,203.911 257.455 C 205.187 256.666,204.481 257.981,203.092 258.979 C 202.193 259.626,201.607 259.912,201.790 259.615 C 202.014 259.254,201.972 259.170,201.662 259.362 C 201.022 259.757,201.060 260.929,201.700 260.555 C 201.975 260.394,201.857 260.653,201.438 261.131 C 200.649 262.031,200.167 262.300,200.600 261.600 C 200.736 261.380,200.561 261.200,200.211 261.200 C 199.861 261.200,199.473 261.515,199.349 261.900 C 199.225 262.285,199.022 262.870,198.898 263.200 C 198.774 263.530,198.712 263.965,198.759 264.168 C 198.806 264.370,198.573 264.309,198.240 264.033 C 197.543 263.455,196.800 263.772,196.800 264.647 C 196.800 264.999,196.991 265.129,197.262 264.962 C 197.548 264.785,197.615 264.852,197.438 265.138 C 197.281 265.392,196.724 265.600,196.200 265.600 C 195.676 265.600,195.119 265.808,194.962 266.062 C 194.791 266.337,194.851 266.415,195.111 266.255 C 195.349 266.108,195.658 266.170,195.796 266.393 C 195.935 266.619,195.680 266.800,195.224 266.800 C 194.675 266.800,194.400 267.059,194.400 267.576 C 194.400 268.481,193.771 269.000,193.400 268.400 C 193.260 268.173,192.968 268.096,192.753 268.229 C 192.511 268.379,192.559 268.716,192.881 269.112 C 193.270 269.593,193.275 269.678,192.900 269.453 C 192.569 269.254,192.400 269.415,192.400 269.930 C 192.400 270.708,193.823 271.410,194.191 270.814 C 194.297 270.643,194.949 270.390,195.641 270.252 C 196.669 270.046,196.813 269.897,196.428 269.434 C 196.054 268.983,196.115 268.817,196.729 268.623 C 197.301 268.441,197.474 268.066,197.397 267.170 C 197.309 266.126,197.713 265.825,197.850 266.833 C 197.878 267.035,197.923 267.303,197.950 267.429 C 198.081 268.028,199.293 266.250,199.343 265.386 C 199.406 264.288,199.902 264.078,200.255 265.000 C 200.597 265.891,201.081 265.728,201.357 264.628 C 201.491 264.093,201.826 263.413,202.101 263.116 C 204.057 260.999,204.205 260.751,203.378 260.989 C 202.950 261.112,203.140 260.947,203.800 260.624 C 204.583 260.240,204.757 260.030,204.300 260.018 C 203.543 259.999,203.341 259.007,204.010 258.594 C 204.235 258.455,204.370 258.516,204.310 258.730 C 204.249 258.945,204.335 259.138,204.500 259.160 C 205.323 259.270,205.507 259.143,205.456 258.500 C 205.425 258.115,205.625 257.845,205.900 257.900 C 206.175 257.955,206.400 257.708,206.400 257.351 C 206.400 256.792,206.307 256.779,205.735 257.251 C 205.216 257.679,205.033 257.690,204.902 257.300 C 204.691 256.674,204.137 256.655,203.762 257.262 M190.480 270.480 C 189.853 271.107,189.864 271.998,190.500 272.006 C 190.843 272.010,190.818 272.128,190.419 272.380 C 190.100 272.582,189.715 272.671,189.565 272.578 C 189.414 272.485,189.197 272.767,189.083 273.205 C 188.850 274.094,189.266 273.961,190.670 272.699 C 191.149 272.268,191.732 272.034,191.966 272.179 C 192.234 272.345,192.294 272.189,192.127 271.755 C 191.942 271.271,192.010 271.159,192.362 271.376 C 192.735 271.607,192.728 271.473,192.333 270.842 C 191.738 269.889,191.180 269.780,190.480 270.480 M187.196 273.804 C 186.657 274.455,187.080 274.591,187.943 274.044 C 188.272 273.835,188.329 273.604,188.088 273.454 C 187.869 273.319,187.468 273.477,187.196 273.804 M185.853 274.680 C 185.540 274.993,186.734 276.089,187.213 275.929 C 187.436 275.855,187.270 275.495,186.843 275.130 C 186.417 274.765,185.971 274.562,185.853 274.680 M184.800 276.200 C 184.522 276.535,184.479 276.800,184.702 276.800 C 184.922 276.800,185.326 276.530,185.600 276.200 C 185.878 275.865,185.921 275.600,185.698 275.600 C 185.478 275.600,185.074 275.870,184.800 276.200 " stroke="none" fill="#006200" fill-rule="evenodd"></path><path id="path1" d="M169.600 88.362 C 169.930 88.596,170.830 88.793,171.600 88.800 C 172.652 88.809,172.851 88.909,172.400 89.200 C 172.039 89.433,171.990 89.590,172.276 89.594 C 172.892 89.602,173.316 88.919,172.868 88.642 C 172.137 88.190,168.977 87.919,169.600 88.362 M177.100 88.282 C 177.595 88.378,178.405 88.378,178.900 88.282 C 179.395 88.187,178.990 88.109,178.000 88.109 C 177.010 88.109,176.605 88.187,177.100 88.282 M182.573 88.359 C 183.295 88.642,185.200 88.493,185.200 88.153 C 185.200 88.069,184.435 88.013,183.500 88.028 C 182.297 88.048,182.026 88.145,182.573 88.359 M203.338 88.442 C 204.259 88.658,205.382 88.657,206.138 88.438 C 207.193 88.132,206.941 88.073,204.600 88.076 C 202.060 88.080,201.943 88.114,203.338 88.442 M211.665 88.412 C 212.084 88.657,212.675 88.662,213.265 88.426 C 214.083 88.098,213.999 88.049,212.600 88.038 C 211.380 88.027,211.158 88.116,211.665 88.412 M163.800 88.800 L 163.000 89.144 163.800 89.132 C 164.240 89.126,165.050 88.976,165.600 88.800 L 166.600 88.480 165.600 88.468 C 165.050 88.462,164.240 88.611,163.800 88.800 M188.600 88.823 C 190.806 89.279,191.692 89.272,191.400 88.800 C 191.264 88.580,190.218 88.421,189.076 88.446 L 187.000 88.492 188.600 88.823 M195.200 88.800 C 194.429 89.298,198.641 89.298,199.800 88.800 C 200.369 88.555,199.907 88.450,198.200 88.434 C 196.880 88.422,195.530 88.587,195.200 88.800 M179.703 89.211 C 180.090 89.449,180.549 89.555,180.722 89.448 C 180.896 89.341,181.300 89.434,181.619 89.655 C 182.048 89.951,181.862 90.015,180.910 89.899 C 180.200 89.812,179.539 89.935,179.441 90.171 C 179.320 90.464,179.253 90.459,179.232 90.154 C 179.210 89.853,178.682 89.802,177.611 89.998 C 176.737 90.158,175.932 90.199,175.822 90.089 C 175.712 89.979,173.682 89.933,171.311 89.986 C 166.166 90.103,166.074 90.104,164.800 90.039 C 160.183 89.805,101.700 90.156,100.009 90.428 C 98.681 90.642,97.578 91.076,97.209 91.532 C 96.874 91.946,96.282 92.396,95.894 92.532 C 95.506 92.668,95.015 93.234,94.804 93.790 C 94.575 94.392,94.106 94.800,93.642 94.800 C 93.102 94.800,92.783 95.168,92.600 96.000 C 92.422 96.809,92.094 97.200,91.592 97.200 C 90.318 97.200,90.318 97.196,90.258 134.444 C 90.207 166.309,90.125 170.876,89.600 171.208 C 89.270 171.417,89.199 171.591,89.443 171.594 C 90.002 171.602,90.037 175.130,89.481 175.474 C 89.251 175.616,89.199 175.525,89.362 175.262 C 89.519 175.008,89.457 174.800,89.224 174.800 C 88.619 174.800,88.698 175.277,89.492 176.409 C 89.996 177.130,90.160 178.068,90.098 179.883 C 90.032 181.823,90.132 182.324,90.550 182.164 C 90.932 182.017,91.075 182.310,91.044 183.178 C 91.020 183.849,90.908 184.399,90.796 184.399 C 90.130 184.402,90.036 201.431,90.695 202.628 C 91.021 203.219,91.035 203.915,90.745 205.056 C 90.496 206.039,90.476 207.180,90.693 208.020 C 90.947 208.998,90.887 209.705,90.482 210.517 C 90.137 211.208,90.024 212.070,90.192 212.725 C 90.344 213.316,90.461 214.289,90.451 214.887 C 90.442 215.485,90.607 216.080,90.817 216.211 C 91.028 216.341,91.200 216.627,91.200 216.847 C 91.200 217.067,91.020 217.136,90.800 217.000 C 90.356 216.725,90.268 217.591,90.642 218.565 C 90.775 218.912,91.073 219.079,91.304 218.936 C 91.549 218.784,91.605 218.869,91.438 219.138 C 91.281 219.392,91.354 219.600,91.600 219.600 C 91.846 219.600,91.944 219.768,91.817 219.972 C 91.691 220.177,91.770 220.458,91.993 220.596 C 92.217 220.734,92.400 221.535,92.400 222.375 C 92.400 223.823,93.361 226.800,93.829 226.800 C 93.949 226.800,93.918 226.575,93.759 226.300 C 93.592 226.010,93.624 225.940,93.836 226.133 C 94.036 226.317,94.208 226.587,94.218 226.733 C 94.313 228.183,95.432 231.267,96.178 232.135 C 96.692 232.733,97.327 233.740,97.589 234.373 C 98.601 236.816,101.367 236.362,103.133 233.462 C 103.824 232.328,104.931 230.770,105.594 230.000 C 106.256 229.230,106.799 228.402,106.799 228.160 C 106.801 227.452,114.403 220.029,116.747 218.448 C 119.850 216.356,121.701 215.115,123.138 214.164 C 124.226 213.444,127.600 209.271,127.600 208.645 C 127.600 208.417,128.819 206.664,131.268 203.373 C 132.075 202.288,133.605 200.656,134.668 199.748 C 135.730 198.839,137.140 197.621,137.800 197.041 C 140.038 195.076,142.108 193.600,142.628 193.600 C 143.481 193.600,148.147 188.736,149.151 186.800 C 151.778 181.733,160.556 173.626,168.032 169.364 C 168.453 169.124,170.090 166.964,171.669 164.564 C 176.288 157.547,179.456 154.406,187.096 149.270 C 189.128 147.903,191.107 146.294,191.492 145.693 C 191.878 145.092,192.525 144.240,192.931 143.800 C 193.336 143.360,193.942 142.477,194.277 141.838 C 194.989 140.477,194.878 140.624,197.995 136.910 C 200.903 133.444,204.471 130.321,209.608 126.742 C 213.070 124.330,213.687 123.694,216.389 119.744 C 218.023 117.355,220.990 113.765,222.980 111.766 C 226.291 108.443,227.701 107.305,231.364 105.000 C 234.597 102.966,236.000 101.503,236.000 100.166 C 236.000 98.545,235.653 97.600,235.057 97.600 C 234.402 97.599,232.364 95.769,232.674 95.460 C 232.817 95.317,232.858 95.193,232.767 95.184 C 232.675 95.174,231.520 95.066,230.200 94.942 C 228.880 94.818,227.583 94.540,227.318 94.324 C 227.052 94.108,226.602 94.050,226.318 94.195 C 226.033 94.340,226.160 94.155,226.600 93.783 C 227.383 93.122,227.377 93.112,226.300 93.298 C 225.559 93.427,225.200 93.317,225.200 92.961 C 225.200 92.650,224.746 92.433,224.100 92.434 C 221.596 92.437,220.047 92.248,220.224 91.961 C 220.328 91.793,220.230 91.542,220.007 91.404 C 219.783 91.266,219.600 91.327,219.600 91.541 C 219.600 92.056,218.636 91.894,217.858 91.248 C 217.512 90.961,217.005 90.870,216.718 91.042 C 216.307 91.289,216.299 91.231,216.680 90.759 C 217.091 90.252,216.964 90.188,215.817 90.322 C 214.767 90.445,214.432 90.318,214.283 89.739 C 214.104 89.043,214.090 89.042,214.046 89.724 C 214.021 90.122,213.817 90.334,213.593 90.196 C 213.370 90.058,213.291 89.777,213.417 89.572 C 213.544 89.368,213.472 89.200,213.257 89.200 C 213.042 89.200,212.799 89.404,212.715 89.654 C 212.580 90.061,210.861 90.149,205.476 90.026 C 204.834 90.011,204.459 89.829,204.600 89.600 C 204.746 89.364,204.305 89.203,203.524 89.206 C 202.600 89.210,202.369 89.319,202.759 89.566 C 203.142 89.809,202.859 89.920,201.858 89.920 C 201.055 89.920,200.314 89.784,200.211 89.619 C 200.109 89.453,198.985 89.482,197.713 89.683 C 196.441 89.885,194.095 89.993,192.499 89.925 C 190.904 89.856,189.599 89.957,189.599 90.149 C 189.600 90.341,189.337 90.280,189.016 90.014 C 188.660 89.717,187.960 89.633,187.216 89.796 C 186.209 90.018,185.998 89.938,185.987 89.332 C 185.975 88.639,185.947 88.637,185.443 89.300 C 184.885 90.036,184.175 90.288,184.600 89.600 C 184.736 89.380,184.556 89.200,184.200 89.200 C 183.844 89.200,183.652 89.361,183.774 89.558 C 183.896 89.755,183.731 90.018,183.408 90.141 C 183.085 90.265,182.677 90.110,182.502 89.796 C 182.326 89.482,181.466 89.124,180.591 89.002 C 179.347 88.828,179.153 88.873,179.703 89.211 M123.905 89.483 C 124.402 89.579,125.122 89.575,125.505 89.475 C 125.887 89.375,125.480 89.296,124.600 89.301 C 123.720 89.305,123.407 89.387,123.905 89.483 M214.800 92.903 C 215.350 93.059,216.334 93.302,216.987 93.444 C 217.640 93.586,218.450 93.842,218.787 94.013 C 219.124 94.184,220.555 94.620,221.966 94.982 C 223.377 95.344,225.302 95.991,226.244 96.420 C 227.186 96.849,228.058 97.200,228.182 97.200 C 232.009 97.200,232.919 100.692,229.600 102.641 C 226.290 104.586,218.000 111.589,218.000 112.441 C 218.000 112.586,217.174 113.760,216.165 115.052 C 215.156 116.343,213.898 118.245,213.370 119.277 C 212.324 121.322,210.113 123.226,205.023 126.464 C 200.034 129.637,195.243 134.879,190.281 142.591 C 189.259 144.180,187.988 145.247,184.000 147.865 C 177.947 151.839,173.743 156.094,169.311 162.732 C 167.178 165.928,165.801 167.567,164.643 168.290 C 156.298 173.501,151.739 177.709,147.400 184.207 C 144.556 188.464,144.005 189.010,139.715 191.815 C 133.865 195.640,127.959 201.934,124.476 208.055 C 123.084 210.501,120.833 212.565,118.000 213.992 C 113.866 216.075,106.782 222.892,103.133 228.299 C 100.346 232.430,98.670 232.226,97.375 227.600 C 97.221 227.050,96.762 226.126,96.354 225.547 C 95.723 224.650,94.428 220.461,94.305 218.918 C 94.284 218.652,94.129 218.520,93.961 218.624 C 93.114 219.147,92.750 216.820,92.517 209.400 C 92.406 205.880,92.147 202.937,91.941 202.861 C 91.728 202.782,91.764 202.485,92.024 202.171 C 92.457 201.650,92.409 200.388,91.823 196.800 C 91.651 195.748,91.687 195.599,91.969 196.200 C 92.245 196.789,92.341 196.313,92.332 194.400 C 92.323 192.408,92.238 192.034,91.970 192.800 C 91.701 193.569,91.679 193.476,91.877 192.400 C 92.019 191.630,92.192 170.660,92.262 145.800 C 92.332 120.940,92.483 100.203,92.598 99.717 C 92.975 98.122,97.710 93.315,99.392 92.819 C 100.815 92.399,213.314 92.481,214.800 92.903 M88.413 101.176 C 88.129 101.706,88.128 102.032,88.409 102.205 C 88.635 102.345,88.794 102.311,88.763 102.130 C 88.622 101.320,88.833 100.773,89.200 101.000 C 89.420 101.136,89.600 101.057,89.600 100.824 C 89.600 100.125,88.858 100.345,88.413 101.176 M298.100 164.500 C 298.155 164.775,297.962 164.951,297.670 164.890 C 297.379 164.830,297.247 164.952,297.377 165.163 C 297.507 165.373,297.210 165.828,296.718 166.173 C 296.122 166.590,296.019 166.802,296.411 166.806 C 296.924 166.811,296.925 166.860,296.419 167.180 C 296.100 167.382,295.667 167.441,295.457 167.312 C 295.248 167.182,295.205 167.284,295.362 167.538 C 295.519 167.792,295.457 168.000,295.224 168.000 C 294.991 168.000,294.800 168.372,294.800 168.826 C 294.800 169.280,294.260 170.106,293.599 170.662 C 292.938 171.218,292.487 171.817,292.595 171.993 C 292.704 172.169,292.339 172.610,291.784 172.974 C 291.229 173.338,290.869 173.788,290.985 173.976 C 291.101 174.163,290.915 174.424,290.572 174.555 C 290.230 174.687,290.069 174.988,290.215 175.224 C 290.361 175.460,290.125 175.747,289.690 175.861 C 289.255 175.974,288.674 176.488,288.399 177.002 C 288.074 177.609,287.672 177.855,287.249 177.704 C 286.892 177.577,286.732 177.618,286.893 177.796 C 287.055 177.975,286.772 178.505,286.265 178.975 C 285.758 179.445,285.416 180.048,285.505 180.315 C 285.719 180.957,284.926 180.944,284.660 180.300 C 284.535 179.997,284.346 180.155,284.180 180.700 C 283.920 181.557,283.563 181.762,282.546 181.640 C 282.296 181.610,281.971 181.899,281.824 182.282 C 281.594 182.880,281.500 182.895,281.152 182.389 C 280.845 181.942,280.809 182.017,281.002 182.703 C 281.279 183.687,279.964 184.510,278.813 184.071 C 278.297 183.875,278.297 183.924,278.813 184.482 C 279.136 184.831,279.563 185.017,279.762 184.896 C 279.961 184.775,279.984 184.902,279.813 185.178 C 279.624 185.485,279.069 185.594,278.388 185.458 C 277.589 185.298,277.203 185.416,277.027 185.874 C 276.814 186.430,276.874 186.442,277.491 185.963 C 278.168 185.439,278.168 185.451,277.500 186.238 C 277.115 186.692,276.800 187.274,276.800 187.531 C 276.800 187.789,276.530 188.023,276.200 188.050 C 275.870 188.078,275.390 188.123,275.133 188.150 C 274.877 188.178,274.593 188.470,274.503 188.800 C 274.357 189.333,274.386 189.333,274.763 188.800 C 275.051 188.393,275.190 188.361,275.194 188.700 C 275.202 189.347,273.747 190.802,273.100 190.794 C 272.761 190.790,272.793 190.651,273.200 190.363 C 273.666 190.034,273.674 189.973,273.237 190.091 C 272.927 190.174,272.607 190.683,272.525 191.221 C 272.444 191.760,272.228 192.251,272.045 192.314 C 270.932 192.698,270.220 193.598,270.753 193.949 C 271.421 194.388,269.510 195.839,268.822 195.414 C 268.574 195.261,268.506 195.411,268.651 195.789 C 268.838 196.277,269.019 196.316,269.447 195.961 C 269.850 195.627,270.000 195.624,270.000 195.951 C 270.000 196.198,269.820 196.423,269.600 196.450 C 269.380 196.478,269.052 196.523,268.871 196.550 C 268.691 196.578,268.228 196.915,267.843 197.300 C 266.980 198.163,266.811 198.168,266.211 197.347 C 265.782 196.760,265.733 196.759,265.733 197.330 C 265.733 197.680,266.000 198.068,266.327 198.193 C 266.810 198.379,266.747 198.604,265.990 199.410 C 265.080 200.380,264.112 200.790,264.600 200.000 C 264.736 199.780,264.657 199.600,264.424 199.600 C 264.191 199.600,264.000 199.949,264.000 200.376 C 264.000 200.803,263.792 201.281,263.538 201.438 C 263.280 201.598,263.184 201.549,263.321 201.328 C 263.455 201.111,263.320 200.933,263.021 200.933 C 262.721 200.933,262.571 201.181,262.687 201.483 C 262.803 201.785,262.741 202.004,262.549 201.969 C 261.545 201.786,261.116 202.016,261.531 202.516 C 262.045 203.136,261.004 203.939,259.898 203.774 C 259.512 203.717,259.298 203.834,259.422 204.035 C 259.546 204.236,259.462 204.400,259.236 204.400 C 259.010 204.400,258.926 204.715,259.050 205.100 C 259.240 205.689,259.208 205.705,258.849 205.200 C 258.484 204.686,258.329 204.733,257.770 205.527 C 257.394 206.061,256.871 206.360,256.538 206.231 C 256.201 206.102,256.065 206.182,256.214 206.422 C 256.577 207.010,255.644 208.000,254.727 208.000 C 254.300 208.000,254.066 208.184,254.206 208.410 C 254.345 208.635,254.311 208.794,254.130 208.763 C 253.208 208.602,252.736 208.856,252.945 209.400 C 253.071 209.730,252.990 210.000,252.764 210.000 C 252.538 210.000,252.483 210.211,252.642 210.468 C 252.835 210.781,252.715 210.853,252.277 210.685 C 251.570 210.414,250.258 211.447,250.603 212.005 C 250.718 212.192,250.630 212.458,250.407 212.596 C 250.183 212.734,250.000 213.197,250.000 213.624 C 250.000 214.298,249.622 214.559,248.772 214.471 C 248.646 214.458,248.323 215.058,248.053 215.804 C 247.716 216.737,247.378 217.090,246.971 216.934 C 246.511 216.757,246.483 216.582,246.847 216.144 C 247.104 215.834,247.231 215.497,247.129 215.395 C 246.550 214.817,245.196 217.646,245.641 218.502 C 245.898 218.996,245.966 219.267,245.791 219.103 C 245.383 218.723,244.400 219.530,244.400 220.245 C 244.400 220.547,243.862 221.307,243.205 221.935 C 242.548 222.563,242.128 223.195,242.272 223.338 C 242.416 223.482,242.143 223.600,241.667 223.600 C 241.190 223.600,240.821 223.735,240.847 223.900 C 240.965 224.646,240.757 224.792,240.250 224.318 C 239.948 224.035,239.802 223.539,239.926 223.215 C 240.125 222.697,240.076 222.697,239.520 223.213 C 239.173 223.536,239.004 223.890,239.144 224.000 C 239.854 224.555,239.436 225.800,238.540 225.800 C 237.489 225.800,237.378 225.582,238.073 224.887 C 238.334 224.626,238.456 224.323,238.345 224.212 C 238.234 224.101,237.727 224.573,237.217 225.262 C 236.708 225.951,236.476 226.401,236.700 226.262 C 236.925 226.123,237.200 226.355,237.310 226.779 C 237.534 227.634,236.672 228.214,234.976 228.350 C 234.633 228.378,234.442 228.544,234.550 228.719 C 234.829 229.171,234.225 230.037,233.560 230.138 C 232.443 230.307,231.966 230.864,232.230 231.694 C 232.440 232.356,232.357 232.469,231.817 232.262 C 231.013 231.953,229.597 232.627,229.606 233.314 C 229.610 233.619,229.756 233.577,230.000 233.200 C 230.452 232.500,230.477 233.059,230.043 234.166 C 229.738 234.944,228.400 235.432,228.400 234.765 C 228.400 234.564,228.610 234.400,228.867 234.400 C 229.123 234.400,229.215 234.282,229.070 234.137 C 228.926 233.992,228.264 234.442,227.600 235.137 C 226.493 236.295,226.419 237.021,227.520 235.920 C 227.893 235.547,228.000 235.549,228.000 235.933 C 228.000 236.203,227.731 236.528,227.402 236.654 C 227.074 236.781,226.907 237.049,227.032 237.252 C 227.157 237.454,227.029 237.570,226.748 237.510 C 226.467 237.449,226.228 237.670,226.217 238.000 C 226.158 239.727,224.924 240.630,223.682 239.854 C 223.169 239.533,221.790 240.323,222.181 240.714 C 222.291 240.824,222.639 240.700,222.955 240.438 C 223.389 240.078,223.599 240.075,223.816 240.425 C 223.973 240.681,223.854 241.044,223.551 241.232 C 223.248 241.421,223.000 241.978,223.000 242.471 C 223.000 243.134,222.669 243.461,221.723 243.734 C 221.021 243.937,220.342 244.375,220.214 244.708 C 220.013 245.232,220.077 245.239,220.691 244.757 C 221.340 244.247,221.352 244.261,220.836 244.918 C 220.526 245.313,220.021 245.540,219.715 245.423 C 219.409 245.305,219.259 245.373,219.383 245.572 C 219.671 246.038,218.520 247.200,217.771 247.200 C 217.457 247.200,217.245 247.425,217.300 247.700 C 217.358 247.988,217.019 248.187,216.500 248.168 C 216.005 248.151,215.600 248.280,215.600 248.456 C 215.600 248.631,215.285 248.657,214.900 248.513 C 214.313 248.293,214.280 248.349,214.697 248.862 C 215.303 249.609,214.972 250.000,213.733 250.000 C 213.220 250.000,212.800 250.199,212.800 250.443 C 212.800 250.686,212.530 250.782,212.200 250.655 C 211.870 250.529,211.600 250.584,211.600 250.779 C 211.600 250.974,211.800 251.200,212.044 251.281 C 212.322 251.374,212.247 251.629,211.844 251.964 C 211.419 252.317,211.200 252.346,211.200 252.049 C 211.200 251.802,211.009 251.600,210.776 251.600 C 210.543 251.600,210.455 251.765,210.579 251.966 C 210.703 252.167,210.580 252.407,210.304 252.499 C 210.029 252.590,209.803 252.995,209.802 253.398 C 209.801 253.801,209.530 254.205,209.200 254.296 C 208.669 254.442,208.669 254.413,209.197 254.047 C 209.640 253.740,209.677 253.517,209.342 253.182 C 208.733 252.573,208.079 253.982,207.904 256.283 C 207.855 256.924,206.892 257.272,206.577 256.763 C 206.152 256.074,205.265 257.153,205.382 258.218 C 205.482 259.128,205.257 259.352,204.500 259.100 C 204.335 259.045,204.249 258.852,204.310 258.670 C 204.370 258.489,204.235 258.455,204.010 258.594 C 203.341 259.007,203.543 259.999,204.300 260.018 C 204.757 260.030,204.583 260.240,203.800 260.624 C 203.140 260.947,202.950 261.112,203.378 260.989 C 204.205 260.751,204.057 260.999,202.101 263.116 C 201.826 263.413,201.491 264.093,201.357 264.628 C 201.081 265.728,200.597 265.891,200.255 265.000 C 199.902 264.078,199.406 264.288,199.343 265.386 C 199.293 266.250,198.081 268.028,197.950 267.429 C 197.923 267.303,197.878 267.035,197.850 266.833 C 197.713 265.825,197.309 266.126,197.397 267.170 C 197.474 268.066,197.301 268.441,196.729 268.623 C 196.115 268.817,196.054 268.983,196.428 269.434 C 196.813 269.897,196.669 270.046,195.641 270.252 C 194.949 270.390,194.291 270.653,194.178 270.836 C 194.064 271.020,193.545 271.007,193.024 270.809 C 192.186 270.491,192.087 270.555,192.176 271.363 C 192.257 272.104,192.101 272.257,191.350 272.175 C 190.841 272.119,190.464 272.251,190.512 272.469 C 190.560 272.686,190.191 273.144,189.692 273.486 C 188.850 274.063,188.803 274.057,189.055 273.400 C 189.249 272.895,189.165 272.745,188.764 272.879 C 188.454 272.982,188.200 273.442,188.200 273.900 C 188.200 274.358,188.065 274.868,187.900 275.033 C 187.735 275.198,187.600 275.113,187.600 274.843 C 187.600 274.573,187.411 274.469,187.181 274.612 C 186.899 274.786,186.931 275.079,187.281 275.505 C 187.732 276.056,187.682 276.108,186.895 275.905 C 186.251 275.739,185.870 275.896,185.575 276.447 C 185.347 276.874,184.958 277.098,184.712 276.946 C 184.423 276.767,184.352 276.898,184.512 277.314 C 184.696 277.795,184.586 277.897,184.080 277.716 C 183.706 277.582,183.519 277.605,183.663 277.766 C 183.808 277.928,183.776 278.587,183.591 279.230 C 183.392 279.925,183.407 280.400,183.628 280.400 C 183.833 280.400,184.000 280.601,184.000 280.847 C 184.000 281.094,183.649 281.201,183.214 281.088 C 182.781 280.975,182.443 280.999,182.461 281.141 C 182.671 282.756,181.539 284.131,180.258 283.817 C 179.786 283.702,179.626 283.711,179.902 283.838 C 180.179 283.965,180.286 284.261,180.141 284.496 C 179.979 284.758,180.067 284.806,180.368 284.620 C 180.725 284.399,180.715 284.547,180.330 285.163 C 180.040 285.629,179.567 285.919,179.280 285.809 C 178.982 285.695,178.871 285.792,179.022 286.035 C 179.340 286.550,178.080 287.794,176.840 288.187 C 176.315 288.354,176.027 288.694,176.147 289.007 C 176.260 289.301,176.059 289.780,175.699 290.071 C 175.151 290.515,175.101 290.510,175.385 290.038 C 175.615 289.657,175.575 289.568,175.262 289.762 C 175.008 289.919,174.800 290.267,174.800 290.535 C 174.800 291.066,173.402 292.400,172.844 292.400 C 172.654 292.400,172.276 292.668,172.004 292.996 C 171.732 293.323,171.305 293.474,171.055 293.331 C 170.805 293.189,170.726 293.212,170.881 293.383 C 171.196 293.733,170.275 294.800,169.658 294.800 C 169.438 294.800,168.904 295.250,168.471 295.800 C 168.039 296.350,167.408 296.800,167.070 296.800 C 166.731 296.800,166.091 297.310,165.647 297.934 C 164.771 299.165,164.242 301.200,164.798 301.200 C 164.988 301.200,165.415 301.472,165.748 301.805 C 166.653 302.710,171.501 305.200,172.357 305.200 C 172.768 305.200,174.070 305.634,175.252 306.164 C 176.433 306.695,178.210 307.257,179.200 307.413 C 180.190 307.570,181.720 308.019,182.600 308.411 C 183.480 308.803,185.010 309.244,186.000 309.390 C 188.785 309.801,299.438 309.644,300.487 309.228 C 302.336 308.494,306.000 305.252,307.890 302.678 L 309.400 300.621 309.514 244.610 C 309.644 181.151,309.949 187.200,305.975 174.400 C 305.327 172.310,304.797 170.443,304.798 170.252 C 304.810 168.275,301.338 164.000,299.720 164.000 C 298.557 164.000,298.032 164.162,298.100 164.500 M302.203 171.393 C 303.604 174.484,305.998 181.875,306.974 186.125 C 307.749 189.499,307.936 297.373,307.172 300.126 C 306.668 301.940,302.620 306.182,300.578 307.035 C 298.829 307.766,190.250 307.890,186.720 307.165 C 180.710 305.931,170.234 301.769,169.815 300.449 C 169.537 299.572,170.178 298.000,170.813 298.000 C 171.025 298.000,171.873 297.398,172.699 296.662 C 173.524 295.927,174.495 295.162,174.856 294.962 C 175.865 294.405,182.523 287.920,183.200 286.835 C 183.530 286.306,184.269 285.317,184.841 284.637 C 185.414 283.957,186.119 282.950,186.407 282.400 C 187.387 280.533,190.192 277.581,192.400 276.093 C 193.610 275.277,195.157 274.158,195.837 273.605 C 196.517 273.052,197.501 272.330,198.024 272.000 C 199.629 270.986,203.944 266.369,206.434 263.000 C 207.735 261.240,209.046 259.530,209.349 259.200 C 209.651 258.870,210.015 258.221,210.158 257.759 C 210.466 256.756,212.567 254.800,213.335 254.800 C 213.634 254.800,214.264 254.485,214.735 254.100 C 215.207 253.715,216.984 252.320,218.683 251.000 C 222.356 248.148,226.533 244.019,228.200 241.595 C 228.860 240.634,229.805 239.441,230.300 238.943 C 230.795 238.444,231.200 237.757,231.200 237.415 C 231.200 236.574,236.037 231.716,237.491 231.097 C 238.571 230.637,240.586 229.021,245.096 225.000 C 246.978 223.322,250.400 219.067,250.400 218.405 C 250.400 218.192,250.822 217.742,251.338 217.404 C 251.853 217.066,252.518 216.053,252.815 215.153 C 253.113 214.253,253.771 213.245,254.278 212.912 C 254.785 212.580,255.200 212.080,255.200 211.801 C 255.200 211.168,257.407 209.463,259.451 208.517 C 260.303 208.123,261.145 207.574,261.321 207.297 C 261.498 207.021,262.308 206.453,263.121 206.036 C 266.007 204.555,274.279 195.947,274.975 193.700 C 275.129 193.204,275.602 192.613,276.027 192.386 C 276.452 192.158,276.800 191.744,276.800 191.467 C 276.800 190.757,279.970 187.534,280.403 187.802 C 280.599 187.923,280.949 187.670,281.180 187.238 C 281.410 186.807,281.977 186.334,282.439 186.188 C 283.315 185.909,283.442 185.815,286.445 183.204 C 287.459 182.322,288.485 181.600,288.724 181.600 C 288.964 181.600,289.663 180.932,290.280 180.116 C 290.896 179.300,292.003 178.005,292.741 177.239 C 293.478 176.474,294.366 175.387,294.715 174.824 C 299.497 167.090,300.122 166.803,302.203 171.393 M91.621 185.420 C 91.427 186.069,91.253 186.300,91.234 185.933 C 91.196 185.188,91.623 183.890,91.836 184.103 C 91.912 184.178,91.815 184.771,91.621 185.420 M91.588 199.400 C 91.588 200.062,91.521 200.097,91.200 199.600 C 90.987 199.270,90.812 198.640,90.812 198.200 C 90.812 197.538,90.879 197.503,91.200 198.000 C 91.413 198.330,91.588 198.960,91.588 199.400 M91.483 207.295 C 91.387 207.793,91.305 207.480,91.301 206.600 C 91.296 205.720,91.375 205.313,91.475 205.695 C 91.575 206.078,91.579 206.798,91.483 207.295 M90.440 220.011 C 90.542 221.522,91.082 222.617,91.381 221.919 C 91.553 221.514,91.413 220.868,91.036 220.330 C 90.646 219.774,90.415 219.650,90.440 220.011 M206.812 255.184 C 206.488 255.389,206.344 255.678,206.493 255.826 C 206.641 255.974,207.053 255.804,207.410 255.448 C 208.113 254.744,207.757 254.587,206.812 255.184 " stroke="none" fill="#006200" fill-rule="evenodd"></path><path id="path2" d="M99.711 94.073 C 97.995 94.838,95.744 96.806,94.478 98.648 L 93.620 99.896 93.400 138.448 C 92.946 218.097,92.923 212.043,93.686 213.600 C 94.063 214.370,94.535 215.720,94.735 216.600 C 94.934 217.480,95.851 220.180,96.773 222.600 C 99.245 229.094,100.047 229.402,103.288 225.100 C 107.152 219.970,111.847 215.693,116.766 212.820 C 119.779 211.060,121.148 209.645,124.190 205.144 C 128.454 198.833,131.663 195.588,139.105 190.059 C 142.815 187.302,143.302 186.779,147.353 181.200 C 150.404 176.999,154.011 173.419,158.207 170.427 C 165.300 165.371,165.581 165.108,168.500 160.800 C 171.961 155.692,178.253 149.332,182.349 146.800 C 186.258 144.384,189.478 141.189,191.407 137.812 C 193.476 134.189,200.023 127.509,204.000 124.963 C 207.808 122.525,210.929 119.607,212.730 116.800 C 216.609 110.756,220.739 106.443,225.985 102.954 C 228.813 101.074,229.507 99.585,227.957 98.723 C 226.617 97.977,219.867 95.571,216.200 94.533 L 212.200 93.400 156.711 93.400 C 105.566 93.400,101.104 93.453,99.711 94.073 M214.672 97.941 C 216.206 98.508,217.395 99.238,217.806 99.865 C 218.548 100.997,218.554 100.986,214.968 104.569 C 214.070 105.466,213.080 106.570,212.768 107.021 C 212.455 107.473,210.490 109.000,208.400 110.415 C 203.653 113.628,200.223 116.985,199.135 119.483 C 198.576 120.767,196.981 122.721,194.305 125.400 C 192.107 127.600,189.745 129.984,189.055 130.697 C 188.365 131.410,187.658 131.995,187.485 131.997 C 185.033 132.021,176.800 140.264,176.800 142.695 C 176.800 142.890,175.945 143.872,174.900 144.878 C 171.408 148.237,169.813 149.831,168.051 151.721 C 167.003 152.845,165.702 153.777,164.806 154.046 C 162.571 154.715,156.538 160.534,155.232 163.279 C 153.999 165.871,143.707 176.157,141.889 176.613 C 140.517 176.958,134.874 181.790,133.800 183.541 C 131.178 187.816,129.730 189.639,125.534 193.955 C 122.147 197.438,120.227 199.078,118.534 199.934 C 115.694 201.369,112.098 205.036,110.601 208.022 C 109.851 209.519,108.184 211.475,105.273 214.275 L 101.037 218.349 99.901 217.678 C 99.027 217.162,98.560 216.358,97.882 214.203 L 97.000 211.400 97.000 155.929 L 97.000 100.458 97.835 99.329 C 99.820 96.646,95.473 96.823,156.800 96.930 L 212.200 97.027 214.672 97.941 M297.582 173.746 C 296.290 175.696,293.645 178.891,290.727 182.025 C 289.997 182.808,288.230 184.330,286.800 185.405 C 285.370 186.481,284.056 187.595,283.880 187.881 C 283.704 188.166,283.382 188.400,283.163 188.400 C 282.372 188.400,277.200 193.474,277.200 194.251 C 277.200 194.531,276.965 194.904,276.678 195.080 C 276.391 195.256,275.626 196.120,274.978 197.000 C 273.876 198.497,271.670 201.027,269.779 202.960 C 268.620 204.146,266.235 206.061,263.145 208.287 C 257.970 212.015,255.248 214.448,254.166 216.312 C 252.403 219.350,247.901 224.982,245.769 226.817 C 244.686 227.749,243.350 228.959,242.800 229.506 C 242.250 230.052,240.720 231.231,239.400 232.124 C 237.198 233.615,233.614 237.039,233.604 237.662 C 233.602 237.806,232.969 238.706,232.197 239.662 C 231.426 240.618,230.661 241.584,230.497 241.808 C 230.195 242.222,228.375 244.349,226.198 246.830 C 225.537 247.583,224.097 248.916,222.998 249.792 C 221.899 250.667,220.797 251.567,220.549 251.792 C 220.301 252.016,219.066 253.010,217.805 254.000 C 214.939 256.250,211.767 259.326,210.200 261.375 C 209.540 262.238,208.234 263.856,207.297 264.972 C 206.360 266.087,205.109 267.634,204.518 268.410 C 203.514 269.726,201.327 271.607,195.359 276.286 C 192.290 278.693,189.975 280.786,189.200 281.856 C 184.033 288.987,179.549 293.791,175.126 296.933 C 170.541 300.191,172.242 301.583,186.000 305.829 C 189.026 306.763,298.981 306.748,300.753 305.813 C 301.329 305.510,302.790 304.252,304.000 303.017 L 306.200 300.772 306.318 244.686 C 306.449 182.674,306.654 188.167,303.904 179.800 C 301.103 171.278,299.948 170.172,297.582 173.746 M300.278 182.600 C 300.757 182.935,301.546 184.390,302.067 185.900 L 303.000 188.600 303.000 244.018 C 303.000 305.841,303.242 300.613,300.300 302.402 C 299.077 303.146,297.581 303.163,243.622 303.045 L 188.200 302.924 185.781 302.052 C 184.021 301.419,183.168 300.853,182.651 299.979 L 181.941 298.776 185.870 294.996 C 188.817 292.162,190.299 291.039,191.795 290.508 C 194.676 289.486,199.245 285.058,200.815 281.768 C 202.342 278.569,211.342 269.008,213.214 268.597 C 215.897 268.008,221.796 262.443,223.600 258.800 C 225.776 254.405,233.639 246.883,238.200 244.834 C 240.442 243.826,244.055 239.860,245.725 236.574 C 247.626 232.833,255.817 224.449,259.572 222.400 C 262.937 220.564,265.491 218.007,267.163 214.800 C 269.188 210.918,277.133 203.230,280.980 201.432 C 284.040 200.002,289.984 194.421,290.017 192.946 C 290.048 191.537,291.491 189.469,295.043 185.740 C 298.839 181.754,298.963 181.679,300.278 182.600 " stroke="none" fill="#006200" fill-rule="evenodd"></path><path id="path3" d="M109.905 85.883 C 110.402 85.979,111.122 85.975,111.505 85.875 C 111.887 85.775,111.480 85.696,110.600 85.701 C 109.720 85.705,109.407 85.787,109.905 85.883 M140.691 85.889 C 141.401 85.977,142.661 85.979,143.491 85.892 C 144.321 85.805,143.740 85.733,142.200 85.731 C 140.660 85.729,139.981 85.800,140.691 85.889 M135.777 86.567 C 134.593 87.433,135.226 87.528,136.800 86.720 C 137.851 86.181,137.994 86.001,137.376 86.001 C 136.924 86.000,136.204 86.255,135.777 86.567 M120.923 87.899 C 123.520 87.969,127.660 87.968,130.123 87.898 C 132.585 87.828,130.460 87.771,125.400 87.772 C 120.340 87.772,118.325 87.829,120.923 87.899 M158.100 87.899 C 161.565 87.966,167.235 87.966,170.700 87.899 C 174.165 87.833,171.330 87.778,164.400 87.778 C 157.470 87.778,154.635 87.833,158.100 87.899 M221.600 88.539 C 222.150 88.829,222.685 88.996,222.788 88.911 C 223.070 88.680,221.890 88.012,221.200 88.012 C 220.869 88.012,221.049 88.248,221.600 88.539 M237.700 92.832 C 238.085 93.056,238.414 93.546,238.432 93.920 C 238.452 94.358,238.537 94.417,238.669 94.087 C 238.909 93.491,238.111 92.394,237.451 92.412 C 237.203 92.419,237.315 92.608,237.700 92.832 M88.382 95.634 C 88.136 96.093,88.023 96.557,88.131 96.664 C 88.239 96.772,88.442 96.498,88.582 96.056 C 88.723 95.613,89.144 95.171,89.519 95.072 C 90.156 94.904,90.156 94.890,89.514 94.846 C 89.137 94.821,88.627 95.175,88.382 95.634 M100.035 97.517 C 99.285 97.892,98.295 98.708,97.835 99.329 L 97.000 100.458 97.000 155.929 L 97.000 211.400 97.882 214.203 C 98.560 216.358,99.027 217.162,99.901 217.678 L 101.037 218.349 105.273 214.275 C 108.184 211.475,109.851 209.519,110.601 208.022 C 112.098 205.036,115.694 201.369,118.534 199.934 C 120.227 199.078,122.147 197.438,125.534 193.955 C 129.730 189.639,131.178 187.816,133.800 183.541 C 134.874 181.790,140.517 176.958,141.889 176.613 C 143.707 176.157,153.999 165.871,155.232 163.279 C 156.538 160.534,162.571 154.715,164.806 154.046 C 165.702 153.777,167.003 152.845,168.051 151.721 C 169.813 149.831,171.408 148.237,174.900 144.878 C 175.945 143.872,176.800 142.890,176.800 142.695 C 176.800 140.264,185.033 132.021,187.485 131.997 C 187.658 131.995,188.365 131.410,189.055 130.697 C 189.745 129.984,192.107 127.600,194.305 125.400 C 196.981 122.721,198.576 120.767,199.135 119.483 C 200.223 116.985,203.653 113.628,208.400 110.415 C 210.490 109.000,212.455 107.473,212.768 107.021 C 213.080 106.570,214.070 105.466,214.968 104.569 C 218.554 100.986,218.548 100.997,217.806 99.865 C 217.395 99.238,216.206 98.508,214.672 97.941 L 212.200 97.027 156.800 96.930 C 105.235 96.840,101.306 96.881,100.035 97.517 M87.709 102.000 C 87.709 102.990,87.787 103.395,87.882 102.900 C 87.978 102.405,87.978 101.595,87.882 101.100 C 87.787 100.605,87.709 101.010,87.709 102.000 M85.709 108.800 C 85.709 109.790,85.787 110.195,85.882 109.700 C 85.978 109.205,85.978 108.395,85.882 107.900 C 85.787 107.405,85.709 107.810,85.709 108.800 M229.678 118.400 C 228.525 119.500,227.772 120.400,228.005 120.400 C 228.395 120.400,232.000 116.937,232.000 116.563 C 232.000 116.230,231.727 116.445,229.678 118.400 M226.218 121.818 C 225.658 122.378,225.200 122.922,225.200 123.027 C 225.200 123.418,227.141 121.930,227.354 121.376 C 227.672 120.546,227.375 120.662,226.218 121.818 M217.051 131.053 C 216.311 132.068,216.312 132.075,217.104 131.651 C 217.545 131.415,218.011 130.947,218.140 130.611 C 218.505 129.661,217.881 129.914,217.051 131.053 M188.202 157.598 C 187.803 158.039,187.662 158.400,187.889 158.400 C 188.392 158.400,189.390 157.257,189.121 156.988 C 189.015 156.882,188.602 157.156,188.202 157.598 M302.700 157.082 C 303.195 157.178,304.005 157.178,304.500 157.082 C 304.995 156.987,304.590 156.909,303.600 156.909 C 302.610 156.909,302.205 156.987,302.700 157.082 M299.992 157.810 C 299.224 158.735,299.679 158.829,300.744 157.966 C 301.388 157.444,301.499 157.200,301.093 157.200 C 300.766 157.200,300.270 157.474,299.992 157.810 M85.693 160.800 C 85.693 161.570,85.775 161.885,85.876 161.500 C 85.976 161.115,85.976 160.485,85.876 160.100 C 85.775 159.715,85.693 160.030,85.693 160.800 M86.009 163.024 C 85.997 163.602,87.085 165.048,87.340 164.793 C 87.453 164.680,87.202 164.141,86.782 163.594 C 86.361 163.047,86.014 162.791,86.009 163.024 M87.714 167.000 C 87.717 168.100,87.795 168.503,87.887 167.895 C 87.979 167.286,87.977 166.386,87.882 165.895 C 87.787 165.403,87.711 165.900,87.714 167.000 M88.188 177.736 C 88.366 179.317,88.986 180.400,89.711 180.400 C 89.938 180.400,89.805 180.047,89.415 179.616 C 89.025 179.185,88.550 178.240,88.360 177.516 C 88.018 176.215,88.016 176.218,88.188 177.736 M295.043 185.740 C 291.491 189.469,290.048 191.537,290.017 192.946 C 289.984 194.421,284.040 200.002,280.980 201.432 C 277.133 203.230,269.188 210.918,267.163 214.800 C 265.491 218.007,262.937 220.564,259.572 222.400 C 255.817 224.449,247.626 232.833,245.725 236.574 C 244.055 239.860,240.442 243.826,238.200 244.834 C 233.639 246.883,225.776 254.405,223.600 258.800 C 221.796 262.443,215.897 268.008,213.214 268.597 C 211.342 269.008,202.342 278.569,200.815 281.768 C 199.245 285.058,194.676 289.486,191.795 290.508 C 190.299 291.039,188.817 292.162,185.870 294.996 L 181.941 298.776 182.651 299.979 C 183.168 300.853,184.021 301.419,185.781 302.052 L 188.200 302.924 243.622 303.045 C 297.581 303.163,299.077 303.146,300.300 302.402 C 303.242 300.613,303.000 305.841,303.000 244.018 L 303.000 188.600 302.067 185.900 C 301.214 183.431,300.090 181.996,299.011 182.002 C 298.785 182.003,296.999 183.685,295.043 185.740 M156.000 188.200 C 155.791 188.750,155.405 189.200,155.143 189.200 C 154.881 189.200,154.782 189.316,154.924 189.457 C 155.291 189.824,156.276 188.916,156.519 187.987 C 156.813 186.864,156.451 187.013,156.000 188.200 M270.411 190.587 C 270.143 190.909,270.017 191.404,270.131 191.687 C 270.258 192.004,270.349 191.928,270.368 191.487 C 270.386 191.095,270.805 190.611,271.300 190.412 C 271.909 190.168,271.990 190.043,271.549 190.025 C 271.191 190.011,270.679 190.264,270.411 190.587 M90.131 227.800 C 90.133 229.340,90.205 229.921,90.292 229.091 C 90.379 228.261,90.377 227.001,90.289 226.291 C 90.200 225.581,90.129 226.260,90.131 227.800 M117.168 228.656 C 116.245 229.660,116.241 229.687,117.078 229.252 C 118.006 228.769,118.595 228.062,118.308 227.775 C 118.214 227.680,117.701 228.077,117.168 228.656 M112.799 233.002 C 112.283 233.551,112.044 234.000,112.268 234.000 C 112.779 234.000,114.198 232.465,113.932 232.199 C 113.825 232.091,113.314 232.452,112.799 233.002 M187.156 272.692 C 186.801 272.772,186.317 273.263,186.080 273.784 C 185.843 274.305,185.294 274.843,184.861 274.981 C 184.428 275.118,183.963 275.519,183.828 275.872 C 183.320 277.195,184.053 276.861,186.057 274.857 C 188.149 272.765,188.319 272.430,187.156 272.692 M182.255 278.446 L 181.111 279.589 182.355 279.156 C 183.160 278.875,183.600 278.453,183.600 277.961 C 183.600 277.053,183.679 277.025,182.255 278.446 M158.893 302.000 C 158.893 302.770,158.975 303.085,159.076 302.700 C 159.176 302.315,159.176 301.685,159.076 301.300 C 158.975 300.915,158.893 301.230,158.893 302.000 M168.012 310.271 C 167.996 310.881,169.119 312.004,169.729 311.988 C 169.988 311.981,169.891 311.795,169.513 311.575 C 169.135 311.355,168.645 310.865,168.425 310.487 C 168.205 310.109,168.019 310.012,168.012 310.271 M178.281 312.280 C 178.766 312.374,179.273 312.799,179.408 313.225 C 179.543 313.651,179.903 314.000,180.208 314.000 C 180.580 314.000,180.458 313.672,179.835 313.000 C 179.325 312.450,178.569 312.025,178.154 312.054 C 177.549 312.098,177.574 312.143,178.281 312.280 M181.700 314.276 C 182.085 314.376,182.715 314.376,183.100 314.276 C 183.485 314.175,183.170 314.093,182.400 314.093 C 181.630 314.093,181.315 314.175,181.700 314.276 M204.073 314.800 C 204.338 315.636,205.971 316.396,207.400 316.348 C 208.507 316.311,208.484 316.286,207.101 316.017 C 206.277 315.857,205.216 315.383,204.743 314.963 C 204.111 314.403,203.934 314.359,204.073 314.800 M268.400 316.000 L 265.000 316.251 268.000 316.276 C 269.650 316.289,272.260 316.171,273.800 316.013 L 276.600 315.726 274.200 315.737 C 272.880 315.744,270.270 315.862,268.400 316.000 M243.700 316.297 C 245.405 316.372,248.195 316.372,249.900 316.297 C 251.605 316.222,250.210 316.161,246.800 316.161 C 243.390 316.161,241.995 316.222,243.700 316.297 " stroke="none" fill="#006200" fill-rule="evenodd"></path><path id="path4" d="M99.392 92.819 C 97.710 93.315,92.975 98.122,92.598 99.717 C 92.483 100.203,92.332 120.940,92.262 145.800 C 92.192 170.660,92.019 191.630,91.877 192.400 C 91.679 193.476,91.701 193.569,91.970 192.800 C 92.238 192.034,92.323 192.408,92.332 194.400 C 92.341 196.313,92.245 196.789,91.969 196.200 C 91.687 195.599,91.651 195.748,91.823 196.800 C 92.409 200.388,92.457 201.650,92.024 202.171 C 91.764 202.485,91.728 202.782,91.941 202.861 C 92.147 202.937,92.406 205.880,92.517 209.400 C 92.750 216.820,93.114 219.147,93.961 218.624 C 94.129 218.520,94.284 218.652,94.305 218.918 C 94.428 220.461,95.723 224.650,96.354 225.547 C 96.762 226.126,97.221 227.050,97.375 227.600 C 98.670 232.226,100.346 232.430,103.133 228.299 C 106.782 222.892,113.866 216.075,118.000 213.992 C 120.833 212.565,123.084 210.501,124.476 208.055 C 127.959 201.934,133.865 195.640,139.715 191.815 C 144.005 189.010,144.556 188.464,147.400 184.207 C 151.739 177.709,156.298 173.501,164.643 168.290 C 165.801 167.567,167.178 165.928,169.311 162.732 C 173.743 156.094,177.947 151.839,184.000 147.865 C 187.988 145.247,189.259 144.180,190.281 142.591 C 195.243 134.879,200.034 129.637,205.023 126.464 C 210.113 123.226,212.324 121.322,213.370 119.277 C 213.898 118.245,215.156 116.343,216.165 115.052 C 217.174 113.760,218.000 112.586,218.000 112.441 C 218.000 111.589,226.290 104.586,229.600 102.641 C 232.919 100.692,232.009 97.200,228.182 97.200 C 228.058 97.200,227.186 96.849,226.244 96.420 C 225.302 95.991,223.377 95.344,221.966 94.982 C 220.555 94.620,219.124 94.184,218.787 94.013 C 218.450 93.842,217.640 93.586,216.987 93.444 C 216.334 93.302,215.350 93.059,214.800 92.903 C 213.314 92.481,100.815 92.399,99.392 92.819 M216.200 94.533 C 219.867 95.571,226.617 97.977,227.957 98.723 C 229.507 99.585,228.813 101.074,225.985 102.954 C 220.739 106.443,216.609 110.756,212.730 116.800 C 210.929 119.607,207.808 122.525,204.000 124.963 C 200.023 127.509,193.476 134.189,191.407 137.812 C 189.478 141.189,186.258 144.384,182.349 146.800 C 178.253 149.332,171.961 155.692,168.500 160.800 C 165.581 165.108,165.300 165.371,158.207 170.427 C 154.011 173.419,150.404 176.999,147.353 181.200 C 143.302 186.779,142.815 187.302,139.105 190.059 C 131.663 195.588,128.454 198.833,124.190 205.144 C 121.148 209.645,119.779 211.060,116.766 212.820 C 111.847 215.693,107.152 219.970,103.288 225.100 C 100.047 229.402,99.245 229.094,96.773 222.600 C 95.851 220.180,94.934 217.480,94.735 216.600 C 94.535 215.720,94.063 214.370,93.686 213.600 C 92.923 212.043,92.946 218.097,93.400 138.448 L 93.620 99.896 94.478 98.648 C 95.744 96.806,97.995 94.838,99.711 94.073 C 101.104 93.453,105.566 93.400,156.711 93.400 L 212.200 93.400 216.200 94.533 M297.100 171.107 C 296.136 172.588,295.063 174.261,294.715 174.824 C 294.366 175.387,293.478 176.474,292.741 177.239 C 292.003 178.005,290.896 179.300,290.280 180.116 C 289.663 180.932,288.964 181.600,288.724 181.600 C 288.485 181.600,287.459 182.322,286.445 183.204 C 283.442 185.815,283.315 185.909,282.439 186.188 C 281.977 186.334,281.410 186.807,281.180 187.238 C 280.949 187.670,280.599 187.923,280.403 187.802 C 279.970 187.534,276.800 190.757,276.800 191.467 C 276.800 191.744,276.452 192.158,276.027 192.386 C 275.602 192.613,275.129 193.204,274.975 193.700 C 274.279 195.947,266.007 204.555,263.121 206.036 C 262.308 206.453,261.498 207.021,261.321 207.297 C 261.145 207.574,260.303 208.123,259.451 208.517 C 257.407 209.463,255.200 211.168,255.200 211.801 C 255.200 212.080,254.785 212.580,254.278 212.912 C 253.771 213.245,253.113 214.253,252.815 215.153 C 252.518 216.053,251.853 217.066,251.338 217.404 C 250.822 217.742,250.400 218.192,250.400 218.405 C 250.400 219.067,246.978 223.322,245.096 225.000 C 240.586 229.021,238.571 230.637,237.491 231.097 C 236.037 231.716,231.200 236.574,231.200 237.415 C 231.200 237.757,230.795 238.444,230.300 238.943 C 229.805 239.441,228.860 240.634,228.200 241.595 C 226.533 244.019,222.356 248.148,218.683 251.000 C 216.984 252.320,215.207 253.715,214.735 254.100 C 214.264 254.485,213.634 254.800,213.335 254.800 C 212.567 254.800,210.466 256.756,210.158 257.759 C 210.015 258.221,209.651 258.870,209.349 259.200 C 209.046 259.530,207.735 261.240,206.434 263.000 C 203.944 266.369,199.629 270.986,198.024 272.000 C 197.501 272.330,196.517 273.052,195.837 273.605 C 195.157 274.158,193.610 275.277,192.400 276.093 C 190.192 277.581,187.387 280.533,186.407 282.400 C 186.119 282.950,185.414 283.957,184.841 284.637 C 184.269 285.317,183.530 286.306,183.200 286.835 C 182.523 287.920,175.865 294.405,174.856 294.962 C 174.495 295.162,173.524 295.927,172.699 296.662 C 171.873 297.398,171.025 298.000,170.813 298.000 C 170.178 298.000,169.537 299.572,169.815 300.449 C 170.234 301.769,180.710 305.931,186.720 307.165 C 190.250 307.890,298.829 307.766,300.578 307.035 C 302.620 306.182,306.668 301.940,307.172 300.126 C 307.461 299.086,307.596 281.124,307.598 243.725 C 307.600 182.978,307.812 188.087,304.912 178.800 C 301.468 167.773,300.128 166.453,297.100 171.107 M301.922 174.326 C 302.942 176.721,304.891 182.646,305.762 186.000 C 306.382 188.390,306.427 193.120,306.318 244.686 L 306.200 300.772 304.000 303.017 C 302.790 304.252,301.329 305.510,300.753 305.813 C 298.981 306.748,189.026 306.763,186.000 305.829 C 172.242 301.583,170.541 300.191,175.126 296.933 C 179.549 293.791,184.033 288.987,189.200 281.856 C 189.975 280.786,192.290 278.693,195.359 276.286 C 201.327 271.607,203.514 269.726,204.518 268.410 C 205.109 267.634,206.360 266.087,207.297 264.972 C 208.234 263.856,209.540 262.238,210.200 261.375 C 211.767 259.326,214.939 256.250,217.805 254.000 C 219.066 253.010,220.301 252.016,220.549 251.792 C 220.797 251.567,221.899 250.667,222.998 249.792 C 224.097 248.916,225.537 247.583,226.198 246.830 C 228.375 244.349,230.195 242.222,230.497 241.808 C 230.661 241.584,231.426 240.618,232.197 239.662 C 232.969 238.706,233.602 237.806,233.604 237.662 C 233.614 237.039,237.198 233.615,239.400 232.124 C 240.720 231.231,242.250 230.052,242.800 229.506 C 243.350 228.959,244.686 227.749,245.769 226.817 C 247.901 224.982,252.403 219.350,254.166 216.312 C 255.248 214.448,257.970 212.015,263.145 208.287 C 266.235 206.061,268.620 204.146,269.779 202.960 C 271.670 201.027,273.876 198.497,274.978 197.000 C 275.626 196.120,276.391 195.256,276.678 195.080 C 276.965 194.904,277.200 194.531,277.200 194.251 C 277.200 193.474,282.372 188.400,283.163 188.400 C 283.382 188.400,283.704 188.166,283.880 187.881 C 284.056 187.595,285.370 186.481,286.800 185.405 C 288.230 184.330,289.997 182.808,290.727 182.025 C 293.645 178.891,296.290 175.696,297.582 173.746 C 299.316 171.127,300.634 171.303,301.922 174.326 M88.418 175.313 C 88.383 175.924,89.614 178.519,89.834 178.299 C 89.957 178.176,89.693 177.384,89.247 176.538 C 88.800 175.692,88.427 175.141,88.418 175.313 M90.254 183.856 C 89.841 186.871,89.977 190.212,90.439 188.400 C 90.635 187.630,90.699 186.415,90.580 185.700 C 90.461 184.985,90.507 184.400,90.682 184.399 C 90.857 184.399,91.019 183.859,91.043 183.199 C 91.109 181.319,90.537 181.796,90.254 183.856 M91.449 184.615 C 91.312 184.973,91.215 185.566,91.234 185.933 C 91.253 186.300,91.427 186.069,91.621 185.420 C 91.998 184.158,91.865 183.533,91.449 184.615 M90.812 198.200 C 90.812 198.640,90.987 199.270,91.200 199.600 C 91.521 200.097,91.588 200.062,91.588 199.400 C 91.588 198.960,91.413 198.330,91.200 198.000 C 90.879 197.503,90.812 197.538,90.812 198.200 M90.056 205.400 C 90.018 210.536,90.086 211.256,90.529 210.400 C 90.893 209.696,90.940 208.973,90.688 207.956 C 90.463 207.046,90.486 205.952,90.751 204.994 C 90.981 204.159,91.048 203.278,90.899 203.038 C 90.750 202.797,90.509 201.880,90.364 201.000 C 90.212 200.081,90.081 201.953,90.056 205.400 M91.301 206.600 C 91.305 207.480,91.387 207.793,91.483 207.295 C 91.579 206.798,91.575 206.078,91.475 205.695 C 91.375 205.313,91.296 205.720,91.301 206.600 M90.093 216.400 C 90.093 217.170,90.175 217.485,90.276 217.100 C 90.376 216.715,90.376 216.085,90.276 215.700 C 90.175 215.315,90.093 215.630,90.093 216.400 " stroke="none" fill="#006200" fill-rule="evenodd"></path></g></svg>