<svg id="visual" viewBox="0 0 960 540" width="960" height="540" xmlns="http://www.w3.org/2000/svg" xmlns:xlink="http://www.w3.org/1999/xlink" version="1.1"><rect width="960" height="540" fill="#ffffff"></rect><g><g transform="translate(50 259)"><path d="M0 -31.3L27.1 -15.7L27.1 15.7L0 31.3L-27.1 15.7L-27.1 -15.7Z" fill="#0066FF"></path></g><g transform="translate(445 36)"><path d="M0 -25L21.7 -12.5L21.7 12.5L0 25L-21.7 12.5L-21.7 -12.5Z" fill="#0066FF"></path></g><g transform="translate(894 66)"><path d="M0 -19L16.5 -9.5L16.5 9.5L0 19L-16.5 9.5L-16.5 -9.5Z" fill="#0066FF"></path></g><g transform="translate(633 226)"><path d="M0 -17L14.7 -8.5L14.7 8.5L0 17L-14.7 8.5L-14.7 -8.5Z" fill="#0066FF"></path></g><g transform="translate(901 235)"><path d="M0 -12L10.4 -6L10.4 6L0 12L-10.4 6L-10.4 -6Z" fill="#0066FF"></path></g><g transform="translate(711 433)"><path d="M0 -30L26 -15L26 15L0 30L-26 15L-26 -15Z" fill="#0066FF"></path></g><g transform="translate(176 464)"><path d="M0 -9L7.8 -4.5L7.8 4.5L0 9L-7.8 4.5L-7.8 -4.5Z" fill="#0066FF"></path></g><g transform="translate(539 474)"><path d="M0 -7L6.1 -3.5L6.1 3.5L0 7L-6.1 3.5L-6.1 -3.5Z" fill="#0066FF"></path></g></g></svg>