<svg id="visual" viewBox="0 0 900 450" width="900" height="450" xmlns="http://www.w3.org/2000/svg" xmlns:xlink="http://www.w3.org/1999/xlink" version="1.1"><rect x="0" y="0" width="900" height="450" fill="#ffffff"></rect><path d="M0 295L21.5 292.5C43 290 86 285 128.8 290.3C171.7 295.7 214.3 311.3 257.2 312.8C300 314.3 343 301.7 385.8 293.2C428.7 284.7 471.3 280.3 514.2 277.8C557 275.3 600 274.7 642.8 279C685.7 283.3 728.3 292.7 771.2 292C814 291.3 857 280.7 878.5 275.3L900 270L900 451L878.5 451C857 451 814 451 771.2 451C728.3 451 685.7 451 642.8 451C600 451 557 451 514.2 451C471.3 451 428.7 451 385.8 451C343 451 300 451 257.2 451C214.3 451 171.7 451 128.8 451C86 451 43 451 21.5 451L0 451Z" fill="#0066ff"></path><path d="M0 332L21.5 333.3C43 334.7 86 337.3 128.8 334.7C171.7 332 214.3 324 257.2 320C300 316 343 316 385.8 324.3C428.7 332.7 471.3 349.3 514.2 352C557 354.7 600 343.3 642.8 343.2C685.7 343 728.3 354 771.2 360.2C814 366.3 857 367.7 878.5 368.3L900 369L900 451L878.5 451C857 451 814 451 771.2 451C728.3 451 685.7 451 642.8 451C600 451 557 451 514.2 451C471.3 451 428.7 451 385.8 451C343 451 300 451 257.2 451C214.3 451 171.7 451 128.8 451C86 451 43 451 21.5 451L0 451Z" fill="#0080ff"></path><path d="M0 357L21.5 361.5C43 366 86 375 128.8 374.8C171.7 374.7 214.3 365.3 257.2 365.8C300 366.3 343 376.7 385.8 378C428.7 379.3 471.3 371.7 514.2 373.2C557 374.7 600 385.3 642.8 384.5C685.7 383.7 728.3 371.3 771.2 362.7C814 354 857 349 878.5 346.5L900 344L900 451L878.5 451C857 451 814 451 771.2 451C728.3 451 685.7 451 642.8 451C600 451 557 451 514.2 451C471.3 451 428.7 451 385.8 451C343 451 300 451 257.2 451C214.3 451 171.7 451 128.8 451C86 451 43 451 21.5 451L0 451Z" fill="#1e97fd"></path><path d="M0 397L21.5 399.5C43 402 86 407 128.8 407C171.7 407 214.3 402 257.2 398.3C300 394.7 343 392.3 385.8 395.5C428.7 398.7 471.3 407.3 514.2 407C557 406.7 600 397.3 642.8 397.5C685.7 397.7 728.3 407.3 771.2 407.5C814 407.7 857 398.3 878.5 393.7L900 389L900 451L878.5 451C857 451 814 451 771.2 451C728.3 451 685.7 451 642.8 451C600 451 557 451 514.2 451C471.3 451 428.7 451 385.8 451C343 451 300 451 257.2 451C214.3 451 171.7 451 128.8 451C86 451 43 451 21.5 451L0 451Z" fill="#4facf7"></path></svg>